<?xml version="1.0" encoding="UTF-8" standalone="no"?>
<!-- Created with Inkscape (http://www.inkscape.org/) -->

<svg
   xmlns:dc="http://purl.org/dc/elements/1.1/"
   xmlns:cc="http://creativecommons.org/ns#"
   xmlns:rdf="http://www.w3.org/1999/02/22-rdf-syntax-ns#"
   xmlns:svg="http://www.w3.org/2000/svg"
   xmlns="http://www.w3.org/2000/svg"
   xmlns:sodipodi="http://sodipodi.sourceforge.net/DTD/sodipodi-0.dtd"
   xmlns:inkscape="http://www.inkscape.org/namespaces/inkscape"
   width="200"
   height="200"
   viewBox="0 0 52.916668 52.916666"
   version="1.1"
   id="svg8"
   inkscape:version="0.92.4 (5da689c313, 2019-01-14)"
   sodipodi:docname="equality.svg">
  <defs
     id="defs2">
    <inkscape:path-effect
       effect="envelope"
       id="path-effect4658"
       is_visible="true"
       yy="true"
       xx="true"
       bendpath1="m -199.08406,108.42369 h 7.0057"
       bendpath2="m -192.07836,108.42369 v 6.75242"
       bendpath3="m -199.08406,115.17611 h 7.0057"
       bendpath4="m -199.08406,108.42369 v 6.75242" />
    <inkscape:path-effect
       effect="bend_path"
       id="path-effect4656"
       is_visible="true"
       bendpath="m -192.00142,114.60623 c 2.12577,-0.53066 4.48261,0.85111 7.0057,0"
       prop_scale="1"
       scale_y_rel="false"
       vertical="false"
       bendpath-nodetypes="cc" />
    <inkscape:path-effect
       effect="bounding_box"
       id="path-effect4654"
       is_visible="true"
       linkedpath=""
       visualbounds="false" />
  </defs>
  <sodipodi:namedview
     id="base"
     pagecolor="#ffffff"
     bordercolor="#666666"
     borderopacity="1.0"
     inkscape:pageopacity="0.0"
     inkscape:pageshadow="2"
     inkscape:zoom="1.4142136"
     inkscape:cx="-95.977044"
     inkscape:cy="112.23202"
     inkscape:document-units="px"
     inkscape:current-layer="layer1"
     showgrid="false"
     fit-margin-top="0"
     fit-margin-left="0"
     fit-margin-right="0"
     fit-margin-bottom="0"
     inkscape:window-width="1366"
     inkscape:window-height="707"
     inkscape:window-x="0"
     inkscape:window-y="0"
     inkscape:window-maximized="1"
     showguides="false"
     inkscape:object-nodes="true"
     units="px"
     inkscape:snap-bbox="true"
     inkscape:bbox-paths="true"
     inkscape:bbox-nodes="true"
     inkscape:snap-bbox-edge-midpoints="true"
     inkscape:snap-bbox-midpoints="true"
     inkscape:object-paths="true"
     inkscape:snap-intersection-paths="true"
     inkscape:snap-smooth-nodes="true"
     inkscape:snap-midpoints="true"
     inkscape:snap-object-midpoints="true" />
  <metadata
     id="metadata5">
    <rdf:RDF>
      <cc:Work
         rdf:about="">
        <dc:format>image/svg+xml</dc:format>
        <dc:type
           rdf:resource="http://purl.org/dc/dcmitype/StillImage" />
        <dc:title />
      </cc:Work>
    </rdf:RDF>
  </metadata>
  <g
     inkscape:label="Layer 1"
     inkscape:groupmode="layer"
     id="layer1"
     transform="translate(39.608708,-92.411388)">
    <text
       xml:space="preserve"
       style="font-style:normal;font-variant:normal;font-weight:500;font-stretch:normal;font-size:8.46666622px;line-height:4.23333311px;font-family:Montserrat;-inkscape-font-specification:'Montserrat Medium';text-align:center;text-anchor:middle;opacity:1;fill:#eeeeee;fill-opacity:1;fill-rule:nonzero;stroke:none;stroke-width:4.23333311;stroke-linecap:butt;stroke-linejoin:round;stroke-miterlimit:4;stroke-dasharray:none;stroke-dashoffset:0;stroke-opacity:1;paint-order:stroke fill markers"
       x="-355.53735"
       y="24.113144"
       id="text4627-36-3"><tspan
         sodipodi:role="line"
         id="tspan4625-0-6"
         x="-355.53735"
         y="24.113144"
         style="font-style:normal;font-variant:normal;font-weight:500;font-stretch:normal;font-size:8.46666622px;font-family:Montserrat;-inkscape-font-specification:'Montserrat Medium';text-align:center;text-anchor:middle;fill:#eeeeee;fill-opacity:1;stroke-width:4.23333311">ORD</tspan></text>
    <rect
       ry="3.96875"
       rx="3.96875"
       style="opacity:1;fill:#222222;fill-opacity:1;fill-rule:nonzero;stroke:none;stroke-width:0.5;stroke-linecap:butt;stroke-linejoin:round;stroke-miterlimit:4;stroke-dasharray:none;stroke-dashoffset:0;stroke-opacity:0.90944878;paint-order:normal"
       id="rect4485-5"
       width="52.916668"
       height="52.916668"
       x="-39.500446"
       y="92.490219" />
    <rect
       ry="2.6458333"
       rx="2.6458333"
       y="95.136055"
       x="-36.854618"
       height="47.625"
       width="47.625"
       id="rect4487-6"
       style="opacity:1;fill:#f44336;fill-opacity:1;fill-rule:nonzero;stroke:none;stroke-width:0.5;stroke-linecap:butt;stroke-linejoin:round;stroke-miterlimit:4;stroke-dasharray:none;stroke-dashoffset:0;stroke-opacity:0.90944878;paint-order:normal" />
    <path
       inkscape:connector-curvature="0"
       id="path4521-2"
       d="m -16.99639,97.877153 c -0.85609,-0.003 -1.72142,0.45745 -2.13682,1.36322 -0.15172,0.33077 -0.19003,0.53142 -0.18759,0.995807 0.002,0.47491 0.0442,0.66176 0.21084,0.98444 0.20361,0.39428 0.56509,0.79177 0.9338,1.01957 0.14806,0.0915 0.34794,0.15545 0.54673,0.20722 0.0803,0.0209 0.16035,0.0431 0.22273,0.0625 0.005,0.0654 0.007,0.14956 0.0119,0.26562 0.01,0.26635 0.0155,0.65223 0.0155,1.125 0,0.70952 -0.004,1.07113 -0.0155,1.2578 -0.0194,-0.004 -0.0138,-0.003 -0.0351,-0.008 -0.11522,-0.0265 -0.26779,-0.0669 -0.44907,-0.11731 -0.36264,-0.10084 -0.83753,-0.24412 -1.35185,-0.41031 -1.97607,-0.6385 -3.18587,-0.85583 -4.03542,-0.6289 -0.32552,0.087 -0.58982,0.19212 -0.90227,0.42168 -0.31244,0.22956 -0.68097,0.57615 -1.29294,1.17202 -0.46639,0.45412 -0.7813,0.7258 -1.03095,0.87488 -0.24964,0.14909 -0.42671,0.18916 -0.69918,0.19172 -0.16995,0.002 -0.20799,-0.0189 -0.19534,-0.004 -0.004,-0.0234 -0.0116,-0.0583 -0.0119,-0.12506 v -0.46871 h -0.5979 -0.59738 v 0.262 c -0.0528,-0.0263 -0.1033,-0.048 -0.16433,-0.0822 -0.19531,-0.10921 -0.41479,-0.25031 -0.53485,-0.34778 -0.13209,-0.10725 -0.22597,-0.18732 -0.30076,-0.24598 -0.0748,-0.0587 -0.0968,-0.10053 -0.22686,-0.13695 -0.0163,-0.005 -0.0345,-0.006 -0.0584,-0.008 -0.0239,-0.002 -0.0837,0.007 -0.0858,0.008 -0.002,5.3e-4 -0.0925,0.0422 -0.094,0.0434 -7.9e-4,5.3e-4 -0.0381,0.038 -0.0388,0.0388 -6.9e-4,7.9e-4 -0.0198,0.0227 -0.0274,0.0351 -0.0607,0.0993 -0.0451,0.14718 -0.0429,0.18345 0.004,0.0725 0.0162,0.12331 0.0269,0.19172 0.11999,0.76898 0.68454,1.54061 1.38286,1.89447 l 0.16433,0.0822 v 0.22273 0.12867 h -0.23047 -0.66405 l -0.34003,1.05885 c -0.15746,0.48664 -0.50027,1.53687 -0.76171,2.33578 -0.26157,0.79934 -0.7847,2.39618 -1.16013,3.54707 -0.37536,1.15065 -0.8929,2.74019 -1.15239,3.53105 l -0.41806,1.26555 h -0.91364 -1.63711 l 0.58601,0.6873 c 1.19325,1.40485 2.57872,2.14638 4.78524,2.57814 0.7506,0.14706 0.94885,0.16071 2.38693,0.1602 1.44175,-5.3e-4 1.63691,-0.0122 2.37505,-0.1602 2.07146,-0.41496 3.62755,-1.21915 4.66794,-2.44533 l 0.65629,-0.77721 -1.50017,-0.0429 -0.8046,-0.0232 -0.0744,-0.23824 c -0.0721,-0.22468 -0.27706,-0.85114 -0.4532,-1.39475 -0.1757,-0.54223 -0.47984,-1.49889 -0.67593,-2.12131 -0.19665,-0.62421 -0.40525,-1.27047 -0.4687,-1.45676 -0.056,-0.16447 -0.32628,-1.00908 -0.59738,-1.8557 -0.27134,-0.84737 -0.70905,-2.20141 -0.96893,-3.00757 l -0.52349,-1.63298 -0.65215,-0.0233 -0.23461,-0.008 v -0.0196 -0.0233 l 0.51573,-0.0238 c 0.21223,-0.01 0.42676,-0.0252 0.60564,-0.0429 0.17889,-0.0177 0.29984,-0.0304 0.41031,-0.0625 0.60041,-0.17439 1.11765,-0.42804 1.82418,-0.89453 0.49588,-0.3274 0.78686,-0.50551 1.00769,-0.58963 0.22084,-0.0841 0.38334,-0.0912 0.69143,-0.0744 0.54809,0.0298 0.84777,0.14774 2.01177,0.79687 0.41798,0.23309 0.90918,0.49949 1.11311,0.60151 0.51234,0.2563 1.35718,0.54854 1.80454,0.60151 l 0.0744,0.008 -0.0429,3.0825 -0.0393,3.24993 -0.60927,1.23041 -0.66404,1.33584 0.0429,3.89071 0.0393,3.57808 h -1.50017 -2.00401 v 0.94154 0.62064 l -0.76947,1.26969 c -0.4426,0.72995 -1.01774,1.6827 -1.28105,2.11357 -0.26472,0.43316 -0.50603,0.82566 -0.57413,0.95704 l -0.26975,0.52711 h 8.28528 c 2.16658,0 4.13761,-0.007 5.56607,-0.0155 0.71423,-0.004 1.2942201,-0.01 1.6955101,-0.0155 0.20064,-0.003 0.35722,-0.005 0.46508,-0.008 0.0539,-0.002 0.0926,-0.002 0.12454,-0.004 0.016,-0.001 0.0306,-0.002 0.047,-0.004 0.008,-10e-4 0.0154,-0.003 0.0351,-0.008 0.01,-0.002 0.0502,-0.0195 0.0506,-0.0196 2.1e-4,-1e-4 0.0666,-0.0428 0.0667,-0.0429 1.1e-4,-1e-4 0.078,-0.18335 0.078,-0.18345 0,-5.3e-4 -0.004,-0.0465 -0.004,-0.047 -1.1e-4,-5.3e-4 -0.006,-0.0202 -0.008,-0.0274 -0.004,-0.0144 -0.008,-0.0233 -0.0119,-0.031 -0.007,-0.0154 -0.0135,-0.0251 -0.0191,-0.0351 -0.011,-0.02 -0.0211,-0.0403 -0.0351,-0.0625 -0.028,-0.0444 -0.064,-0.0982 -0.10955,-0.16434 -0.0911,-0.13228 -0.21515,-0.30733 -0.3514,-0.49196 -0.2694,-0.36503 -0.62842,-0.85402 -0.79737,-1.08623 -0.1702001,-0.23394 -0.3625701,-0.49252 -0.4294301,-0.58188 -0.0587,-0.0785 -0.44779,-0.60837 -0.85525,-1.16427 l -0.69143,-0.94516 v -0.58188 -0.90641 l -1.77353,-0.0196 -1.28157,-0.0119 -0.0269,-3.64835 -0.0274,-3.95687 -0.16433,-0.28939 c -0.052,-0.0922 -0.34644,-0.6887 -0.61702,-1.2578 l -0.4687,-0.98392 v -3.18327 -3.03134 l 0.19172,-0.0351 c 0.75123,-0.14676 1.35323,-0.42206 3.05046,-1.36737 0.95756,-0.53333 1.48968,-0.67811 2.02364,-0.60564 0.30173,0.0409 0.58559,0.18089 1.4490101,0.75397 0.95261,0.63226 1.80279,0.92372 2.72645,0.92604 0.1473,2.6e-4 0.18143,0.006 0.21497,0.008 8e-4,0.027 8e-4,0.0433 0,0.0703 -0.0363,0.002 -0.0848,0.008 -0.25373,0.008 h -0.63303 l -0.17932,0.49609 c -0.075,0.20894 -0.42486,1.28611 -0.79737,2.43758 -0.37217,1.15046 -0.80388,2.47226 -0.95653,2.93367 -0.15394,0.46526 -0.58312,1.78258 -0.9570501,2.93367 -0.3737,1.1504 -0.75818,2.3214 -0.84801,2.58589 l -0.10903,0.32401 -0.90641,0.0155 -1.57044,0.0238 0.44906,0.60513 c 0.72802,0.98556 2.05598,1.85851 3.4768001,2.3089 1.88059,0.59615 4.354115,0.70104 6.398571,0.27699 0.893012,-0.18522 1.48825,-0.3928 2.296502,-0.78858 0.93206097,-0.45642 1.56639697,-0.96068 2.281518,-1.81643 l 0.499708,-0.5979 h -1.51515503 -0.805114 l -0.06615,-0.19533 c -0.06498,-0.19074 -0.28419697,-0.86589 -0.48059197,-1.48828 -0.196921,-0.62398 -0.403082,-1.27304 -0.464571,-1.45676 -0.05704,-0.1705 -0.254635,-0.77747 -0.433565,-1.33636 -0.179118,-0.55948 -0.399981,-1.25098 -0.492477,-1.53892 -0.159663,-0.49693 -0.727004,-2.27099 -1.44539,-4.51962 l -0.382923,-1.20303 h -0.664041 -0.230478 v -0.0744 c 0,-0.0898 0.0053,-0.11589 0.0088,-0.14211 0.935063,-0.32552 1.662625,-1.14331 1.835028,-2.09187 l 0.176218,-0.95705 -0.879018,0.70693 c -0.139099,0.11255 -0.412549,0.28623 -0.679542,0.43357 -0.190902,0.10534 -0.327845,0.1596 -0.460955,0.21497 v -0.35966 h -0.597894 -0.59738 v 0.47284 c 0,0.0682 -0.008,0.10236 -0.0124,0.12454 -0.0212,2.6e-4 -0.0524,10e-4 -0.11679,-0.0114 -0.21049,-0.0405 -0.37572,-0.10642 -0.60926,-0.26924 -0.23355,-0.16282 -0.52923,-0.42807 -0.95343,-0.84387 -0.68343,-0.66989 -1.11705,-1.06421 -1.53892,-1.3007 -0.4218801,-0.2365 -0.8213701,-0.29084 -1.3435901,-0.28939 -0.94857,0.003 -1.59169,0.14001 -3.35949,0.70694 -0.4919,0.15775 -1.00129,0.30665 -1.4025,0.41806 -0.1944,0.054 -0.35876,0.098 -0.48834,0.12919 -0.002,-0.0583 -0.006,-0.10043 -0.008,-0.1757 -0.005,-0.28761 -0.004,-0.68922 0,-1.12913 l 0.0119,-1.42214 0.0703,-0.0191 c 0.65412,-0.19307 1.14738,-0.63427 1.45728,-1.28932 0.14851,-0.3139 0.19116,-0.52264 0.1912,-0.94155 4e-5,-0.418468 -0.0444,-0.627868 -0.19534,-0.960658 -0.41204,-0.90853 -1.2766,-1.37543 -2.13268,-1.37873 z m 10.3864501,11.706787 c 0.0104,0.12845 0.0214,0.33739 0.0274,0.69556 0.0124,0.74851 0.0155,2.09388 0.0155,4.4881 0,1.47476 -0.005,2.82453 -0.0119,3.81269 -0.003,0.49408 -0.007,0.89715 -0.0114,1.17926 -0.002,0.11921 -0.002,0.20457 -0.004,0.2775 -0.0401,0.004 -0.0569,0.008 -0.13281,0.0119 -0.2677,0.0122 -0.76214,0.0155 -1.63298,0.0155 -0.74457,0 -1.23636,-0.005 -1.5353,-0.0155 -0.0582,-0.002 -0.073,-0.005 -0.1167901,-0.008 0.005,-0.015 0.007,-0.0232 0.0119,-0.0393 0.0532,-0.17404 0.1253701,-0.40505 0.2067001,-0.65215 0.33445,-1.01621 0.68544,-2.08175 1.20303,-3.66386 0.24035,-0.73469 0.72008,-2.21537 1.14877,-3.53519 0.42732,-1.31561 0.79205,-2.43657 0.83199,-2.56677 z m -22.0157101,0.1173 0.016,5.10925 0.0155,5.25395 h -1.72289 c -0.54108,0 -1.03875,-0.004 -1.39837,-0.0119 -0.12322,-0.003 -0.20158,-0.009 -0.28887,-0.0119 0.011,-0.0379 0.0177,-0.0609 0.031,-0.10542 0.0707,-0.23637 0.1741,-0.56024 0.28938,-0.91002 0.23201,-0.70396 0.72594,-2.2198 1.10123,-3.37086 0.37518,-1.15073 0.8927,-2.73304 1.14877,-3.51606 0.25614,-0.78326 0.56073,-1.71046 0.67541,-2.06241 0.0467,-0.14322 0.0917,-0.26588 0.13281,-0.37466 z m 1.27382,0.008 c 0.0178,0.0426 0.0204,0.0411 0.0429,0.1018 0.13901,0.37538 0.37592,1.10818 0.82011,2.49959 0.26027,0.81531 0.69058,2.16491 0.95704,2.9962 0.26639,0.83103 0.69656,2.17702 0.95705,2.99206 0.26056,0.81526 0.51161,1.59766 0.55862,1.74253 -0.0797,0.003 -0.14825,0.009 -0.25786,0.0119 -0.34867,0.009 -0.83117,0.0114 -1.36323,0.0114 -0.85758,0 -1.34562,-0.003 -1.6092,-0.0155 -0.0715,-0.003 -0.0859,-0.007 -0.12506,-0.0119 -0.002,-0.0729 -0.002,-0.15776 -0.004,-0.27698 -0.004,-0.28211 -0.008,-0.6857 -0.0114,-1.17977 -0.006,-0.98816 -0.0119,-2.33794 -0.0119,-3.81269 0,-2.90228 -0.004,-4.29071 0.031,-4.92167 0.006,-0.10938 0.005,-0.0717 0.016,-0.13694 z m 22.0193291,0.0155 c 0.0018,0.005 0.0021,0.003 0.0041,0.008 0.10936,0.29817 0.300823,0.89779 0.664043,2.05466 0.164121,0.52274 0.649719,2.03828 1.304827,4.07055 0.465553,1.44404 0.814422,2.53723 1.046451,3.27732 0.116017,0.37004 0.204621,0.65076 0.262001,0.84388 0.0086,0.0289 0.01222,0.0413 0.01963,0.0661 -0.02758,0.002 -0.02821,0.003 -0.06253,0.004 -0.270584,0.0116 -0.755536,0.0155 -1.5782,0.0155 h -1.699117 v -5.24205 c 0,-2.98428 -0.0037,-4.39425 0.03101,-5.01933 0.0021,-0.0377 0.0053,-0.0466 0.0078,-0.0786 z"
       style="fill:#222222;fill-opacity:1;stroke:none;stroke-width:0.5;stroke-opacity:1" />
    <path
       inkscape:connector-curvature="0"
       id="rect5205-3-9"
       d="m -38.04524,129.5319 v 8.33438 c 0,3.07816 2.47809,5.55625 5.55625,5.55625 H 6.4047601 c 3.078162,0 5.5562489,-2.47809 5.5562489,-5.55625 v -8.33438 z"
       style="opacity:1;fill:#222222;fill-opacity:1;fill-rule:nonzero;stroke:none;stroke-width:0.5;stroke-linecap:butt;stroke-linejoin:round;stroke-miterlimit:4;stroke-dasharray:none;stroke-dashoffset:0;stroke-opacity:0.90944878;paint-order:normal" />
    <text
       id="text4627-3-2-1"
       y="140.21947"
       x="-13.310673"
       style="font-style:normal;font-variant:normal;font-weight:500;font-stretch:normal;font-size:8.46666622px;line-height:4.23333311px;font-family:Montserrat;-inkscape-font-specification:'Montserrat Medium';text-align:center;letter-spacing:0px;text-anchor:middle;opacity:1;fill:#eeeeee;fill-opacity:1;fill-rule:nonzero;stroke:none;stroke-width:4.23333311;stroke-linecap:butt;stroke-linejoin:round;stroke-miterlimit:4;stroke-dasharray:none;stroke-dashoffset:0;stroke-opacity:1;paint-order:stroke fill markers"
       xml:space="preserve"><tspan
         style="font-style:normal;font-variant:normal;font-weight:600;font-stretch:normal;font-size:8.46666622px;font-family:Montserrat;-inkscape-font-specification:'Montserrat Semi-Bold';text-align:center;letter-spacing:0px;text-anchor:middle;fill:#eeeeee;fill-opacity:1;stroke-width:4.23333311"
         y="140.21947"
         x="-13.310673"
         id="tspan4625-6-9-27"
         sodipodi:role="line">RÓWNOŚĆ</tspan></text>
  </g>
</svg>
