<?xml version="1.0" encoding="UTF-8" standalone="no"?>
<!-- Created with Inkscape (http://www.inkscape.org/) -->

<svg
   xmlns:dc="http://purl.org/dc/elements/1.1/"
   xmlns:cc="http://creativecommons.org/ns#"
   xmlns:rdf="http://www.w3.org/1999/02/22-rdf-syntax-ns#"
   xmlns:svg="http://www.w3.org/2000/svg"
   xmlns="http://www.w3.org/2000/svg"
   xmlns:sodipodi="http://sodipodi.sourceforge.net/DTD/sodipodi-0.dtd"
   xmlns:inkscape="http://www.inkscape.org/namespaces/inkscape"
   width="200"
   height="200"
   viewBox="0 0 52.916668 52.916666"
   version="1.1"
   id="svg8"
   inkscape:version="0.92.4 (5da689c313, 2019-01-14)"
   sodipodi:docname="federal.svg">
  <defs
     id="defs2">
    <inkscape:path-effect
       effect="envelope"
       id="path-effect4658"
       is_visible="true"
       yy="true"
       xx="true"
       bendpath1="m -199.08406,108.42369 h 7.0057"
       bendpath2="m -192.07836,108.42369 v 6.75242"
       bendpath3="m -199.08406,115.17611 h 7.0057"
       bendpath4="m -199.08406,108.42369 v 6.75242" />
    <inkscape:path-effect
       effect="bend_path"
       id="path-effect4656"
       is_visible="true"
       bendpath="m -192.00142,114.60623 c 2.12577,-0.53066 4.48261,0.85111 7.0057,0"
       prop_scale="1"
       scale_y_rel="false"
       vertical="false"
       bendpath-nodetypes="cc" />
    <inkscape:path-effect
       effect="bounding_box"
       id="path-effect4654"
       is_visible="true"
       linkedpath=""
       visualbounds="false" />
  </defs>
  <sodipodi:namedview
     id="base"
     pagecolor="#ffffff"
     bordercolor="#666666"
     borderopacity="1.0"
     inkscape:pageopacity="0.0"
     inkscape:pageshadow="2"
     inkscape:zoom="1.4142136"
     inkscape:cx="121.84569"
     inkscape:cy="95.082103"
     inkscape:document-units="px"
     inkscape:current-layer="layer1"
     showgrid="false"
     fit-margin-top="0"
     fit-margin-left="0"
     fit-margin-right="0"
     fit-margin-bottom="0"
     inkscape:window-width="1366"
     inkscape:window-height="707"
     inkscape:window-x="0"
     inkscape:window-y="0"
     inkscape:window-maximized="1"
     showguides="false"
     inkscape:object-nodes="true"
     units="px"
     inkscape:snap-page="true"
     inkscape:snap-bbox="true"
     inkscape:bbox-paths="true"
     inkscape:bbox-nodes="true"
     inkscape:snap-bbox-edge-midpoints="true"
     inkscape:snap-bbox-midpoints="true" />
  <metadata
     id="metadata5">
    <rdf:RDF>
      <cc:Work
         rdf:about="">
        <dc:format>image/svg+xml</dc:format>
        <dc:type
           rdf:resource="http://purl.org/dc/dcmitype/StillImage" />
        <dc:title></dc:title>
      </cc:Work>
    </rdf:RDF>
  </metadata>
  <g
     inkscape:label="Layer 1"
     inkscape:groupmode="layer"
     id="layer1"
     transform="translate(98.048812,-95.14345)">
    <rect
       y="95.143448"
       x="-98.048813"
       height="52.916668"
       width="52.916668"
       id="rect5134"
       style="opacity:1;fill:#222222;fill-opacity:1;fill-rule:nonzero;stroke:none;stroke-width:0.5;stroke-linecap:butt;stroke-linejoin:round;stroke-miterlimit:4;stroke-dasharray:none;stroke-dashoffset:0;stroke-opacity:0.90944878;paint-order:normal"
       rx="3.96875"
       ry="3.96875" />
    <rect
       style="opacity:1;fill:#ffeb3b;fill-opacity:1;fill-rule:nonzero;stroke:none;stroke-width:0.5;stroke-linecap:butt;stroke-linejoin:round;stroke-miterlimit:4;stroke-dasharray:none;stroke-dashoffset:0;stroke-opacity:0.90944878;paint-order:normal"
       id="rect5136"
       width="47.625"
       height="47.625"
       x="-95.402977"
       y="97.789284"
       rx="2.6458333"
       ry="2.6458333" />
    <path
       inkscape:connector-curvature="0"
       id="rect5205"
       d="m -96.593606,132.18512 v 8.33437 c 0,3.07817 2.478088,5.55625 5.55625,5.55625 h 38.893751 c 3.078162,0 5.55625,-2.47808 5.55625,-5.55625 v -8.33437 z"
       style="opacity:1;fill:#222222;fill-opacity:1;fill-rule:nonzero;stroke:none;stroke-width:0.5;stroke-linecap:butt;stroke-linejoin:round;stroke-miterlimit:4;stroke-dasharray:none;stroke-dashoffset:0;stroke-opacity:0.90944878;paint-order:normal" />
    <text
       xml:space="preserve"
       style="font-style:normal;font-variant:normal;font-weight:500;font-stretch:normal;font-size:8.46666622px;line-height:4.23333311px;font-family:Montserrat;-inkscape-font-specification:'Montserrat Medium';text-align:center;text-anchor:middle;opacity:1;fill:#eeeeee;fill-opacity:1;fill-rule:nonzero;stroke:none;stroke-width:4.23333311;stroke-linecap:butt;stroke-linejoin:round;stroke-miterlimit:4;stroke-dasharray:none;stroke-dashoffset:0;stroke-opacity:1;paint-order:stroke fill markers"
       x="-355.53735"
       y="24.113144"
       id="text4627-36-3"><tspan
         sodipodi:role="line"
         id="tspan4625-0-6"
         x="-355.53735"
         y="24.113144"
         style="font-style:normal;font-variant:normal;font-weight:500;font-stretch:normal;font-size:8.46666622px;font-family:Montserrat;-inkscape-font-specification:'Montserrat Medium';text-align:center;text-anchor:middle;fill:#eeeeee;fill-opacity:1;stroke-width:4.23333311">ORD</tspan></text>
    <path
       style="display:block;fill:#222222;fill-rule:evenodd;stroke:none;stroke-width:0.15213257"
       inkscape:connector-curvature="0"
       d="m -87.658876,103.33877 c -0.02404,0.024 -0.04366,0.21862 -0.04366,0.43252 0,0.48499 -0.223179,0.92679 -0.357968,0.70863 -0.02069,-0.0336 -0.0076,-0.0796 0.02906,-0.10223 0.200967,-0.1243 -0.151068,-0.51741 -0.587536,-0.65585 -0.07302,-0.0233 -0.132812,-0.0697 -0.132812,-0.10329 0,-0.0336 -0.04549,-0.0612 -0.101016,-0.0612 -0.08459,0 -0.0995,0.1033 -0.09189,0.63926 0.005,0.35173 -0.0105,0.71517 -0.03439,0.80798 -0.03712,0.14437 -0.0052,0.19488 0.223179,0.3531 0.167954,0.11653 0.266841,0.2358 0.267449,0.32328 0.0024,0.3353 0.53505,0.49336 1.802314,0.53504 0.546765,0.0179 1.048042,0.0881 1.384407,0.19367 0.159587,0.05 0.219679,-0.0911 0.221201,-0.51877 9.2e-4,-0.24189 0.082,-0.59164 0.300005,-1.29328 0.16552,-0.53292 0.115773,-0.64687 -0.282358,-0.64687 -0.09295,0 -0.319326,-0.0424 -0.502798,-0.0942 -0.183472,-0.0517 -0.481196,-0.12687 -0.661473,-0.16704 -0.822884,-0.18302 -1.058994,-0.246 -1.192414,-0.31765 -0.166586,-0.0895 -0.181038,-0.0914 -0.239305,-0.0332 m 33.888136,0.6388 c -0.08596,0.0628 -0.162782,0.073 -0.239761,0.0316 -0.233067,-0.12475 -0.425363,0.43312 -0.443162,1.28583 -0.0042,0.20218 -0.06785,0.45244 -0.165825,0.65249 -0.09234,0.18849 -0.135854,0.35356 -0.103755,0.39342 0.03043,0.0379 0.07667,0.20158 0.102994,0.3639 0.02617,0.16233 0.07013,0.32465 0.09767,0.36071 0.02754,0.036 0.07135,0.13935 0.09721,0.22956 0.175562,0.61203 0.384135,0.81117 0.463396,0.44255 0.02647,-0.12292 0.174344,-0.34457 0.349449,-0.52394 0.167041,-0.17099 0.31963,-0.37759 0.339255,-0.45898 0.01963,-0.0815 0.115469,-0.18667 0.213138,-0.23383 0.09767,-0.047 0.177539,-0.11334 0.177539,-0.14741 0,-0.0342 0.03012,-0.0621 0.06694,-0.0621 0.143613,0 0.588753,-0.33576 0.587992,-0.44347 -9.2e-4,-0.11836 -0.441184,-0.63287 -0.581754,-0.67973 -0.04412,-0.0146 -0.106037,-0.12947 -0.13768,-0.25498 -0.223179,-0.88419 -0.493062,-1.19743 -0.823646,-0.95569 m -30.589141,0.5349 c -0.03514,0.0925 -0.06435,0.24736 -0.06466,0.34427 -4.56e-4,0.0968 -0.04184,0.31127 -0.09204,0.47678 -0.14483,0.47694 -0.194273,1.13066 -0.105884,1.39856 0.103146,0.31233 0.03788,0.57141 -0.233372,0.92679 -0.174496,0.2285 -0.223787,0.35523 -0.223787,0.57507 0,0.15502 -0.04336,0.33925 -0.0963,0.40923 -0.05295,0.07 -0.09721,0.19625 -0.09828,0.28053 -0.0012,0.0841 -0.05294,0.34352 -0.11486,0.57628 -0.148482,0.55711 -0.102842,0.62572 0.480282,0.72294 0.248737,0.0414 0.614463,0.10633 0.812844,0.14421 1.331464,0.25483 1.887661,0.33515 2.011041,0.29028 0.113186,-0.0414 0.216484,-0.56624 0.234893,-1.19455 l 0.01628,-0.55361 -0.214507,-0.0628 c -0.147721,-0.0433 -0.266232,-0.0394 -0.380788,0.0128 -0.294224,0.13403 -0.583885,-0.1748 -0.790633,-0.84282 -0.06405,-0.20705 -0.154719,-0.33454 -0.303505,-0.42703 -0.25756,-0.16035 -0.310045,-0.45655 -0.145286,-0.82167 l 0.109535,-0.24311 -0.219375,-0.32085 c -0.457158,-0.66892 -0.47085,-0.71122 -0.424602,-1.31108 0.0429,-0.55878 -0.02586,-0.72521 -0.157,-0.38017 m 0.617658,0.0651 c -0.07683,0.30609 0.01536,0.72795 0.22759,1.04256 0.113034,0.1675 0.205531,0.33135 0.205531,0.36436 0,0.033 0.05842,0.0913 0.129617,0.12947 0.228655,0.12231 0.277186,0.29605 0.154567,0.5533 -0.09995,0.20964 -0.100712,0.24235 -0.0085,0.34762 0.147721,0.16841 0.289356,0.47603 0.338951,0.73602 0.0963,0.50508 0.707569,0.72537 1.069644,0.38535 0.167498,-0.15745 -0.06496,-0.16551 2.217484,0.0765 0.360554,0.0382 1.020049,0.11637 1.465341,0.17373 0.684597,0.0879 0.823646,0.0902 0.899103,0.0144 0.103147,-0.10329 0.248737,-1.90257 0.214203,-2.64696 l -0.0213,-0.45897 -0.262276,-0.0146 c -0.144222,-0.008 -0.601685,-0.0589 -1.016398,-0.11304 -0.414866,-0.0542 -1.034502,-0.12748 -1.377104,-0.16293 -0.990687,-0.10269 -1.706167,-0.20432 -2.144613,-0.30472 -0.223787,-0.0513 -0.504167,-0.0936 -0.622983,-0.094 -0.118815,-4.6e-4 -0.378353,-0.0443 -0.576734,-0.0975 -0.573692,-0.15411 -0.841141,-0.13327 -0.892106,0.0694 m 7.61743,0.74392 c -0.06542,0.10589 -0.244173,1.74238 -0.221049,2.02291 l 0.02038,0.24569 1.098701,0.0743 c 0.604118,0.0408 1.548405,0.085 2.098364,0.0984 l 0.999663,0.024 -0.01901,-0.16385 c -0.0105,-0.0902 -0.04822,-0.41487 -0.08382,-0.72142 -0.0356,-0.30654 -0.111361,-0.68048 -0.168259,-0.83094 -0.0569,-0.15061 -0.08306,-0.3067 -0.05811,-0.34717 0.133877,-0.21663 -0.09371,-0.2644 -1.268938,-0.26654 -1.078316,-0.002 -1.76778,-0.0526 -2.18158,-0.16019 -0.100864,-0.0263 -0.191231,-0.016 -0.216332,0.0248 m 4.310219,0.24812 c -0.02328,0.0607 -0.0049,0.3779 0.04092,0.70483 0.04579,0.32693 0.11197,0.80097 0.147112,1.05337 0.03514,0.25254 0.06359,0.60381 0.06298,0.78074 -4.56e-4,0.17708 0.04199,0.38276 0.09417,0.45731 0.06694,0.0955 0.09478,0.32282 0.09478,0.77268 0,0.78409 -0.123684,0.72643 1.442064,0.67136 1.466862,-0.0516 1.46382,-0.0502 0.921467,-0.39843 -0.402999,-0.25863 -0.526227,-0.46584 -0.526987,-0.88587 -3.04e-4,-0.0969 -0.03043,-0.25513 -0.06709,-0.35158 -0.05599,-0.14726 -0.03682,-0.22439 0.120033,-0.47967 0.102842,-0.16735 0.205531,-0.41913 0.228047,-0.55955 0.02997,-0.1856 0.118511,-0.32876 0.324498,-0.52455 0.423233,-0.40224 0.546156,-0.61461 0.35812,-0.61918 -0.318261,-0.008 -0.614463,-0.1004 -0.826231,-0.25893 -0.19686,-0.14741 -0.245846,-0.15806 -0.421712,-0.0916 -0.158826,0.0599 -0.238392,0.0555 -0.393871,-0.0221 -0.107102,-0.0535 -0.244782,-0.0972 -0.305939,-0.0972 -0.061,0 -0.17906,-0.059 -0.262124,-0.13114 -0.204162,-0.17708 -0.964368,-0.1923 -1.030241,-0.0205 m -17.48566,0.43251 c -0.05903,0.15456 -0.107253,0.31583 -0.107253,0.35843 0,0.0733 -0.09813,0.3248 -0.300614,0.77055 -0.04914,0.10816 -0.120946,0.27049 -0.159436,0.3607 -0.08276,0.19336 -0.205835,0.40985 -0.303808,0.53399 -0.06633,0.0843 -0.285401,0.68337 -0.285401,0.78089 0,0.0721 1.439935,0.49063 2.590209,0.75276 0.403304,0.0919 0.739213,0.17343 1.229536,0.29848 0.577495,0.14726 0.587383,0.14239 0.680032,-0.33332 0.04564,-0.23444 0.114251,-0.52942 0.152285,-0.65539 0.03818,-0.12597 0.06937,-0.41121 0.06937,-0.63378 0,-0.22273 0.02267,-0.41472 0.0502,-0.42673 0.107558,-0.0467 0.539919,-0.6312 0.539919,-0.72978 0,-0.14316 -0.253301,-0.30853 -0.472372,-0.30853 -0.09949,0 -0.380636,-0.0292 -0.624808,-0.0651 -0.244021,-0.0358 -0.768422,-0.0974 -1.165184,-0.13677 -0.396609,-0.0394 -0.795044,-0.0814 -0.885259,-0.0934 -0.09006,-0.012 -0.216789,-0.0243 -0.281597,-0.0272 -0.1926,-0.009 -0.439664,-0.30472 -0.439664,-0.52699 0,-0.29453 -0.160043,-0.24919 -0.286161,0.0812 m 22.515923,0.63789 c 0,0.0365 -0.162326,0.14589 -0.360707,0.24311 -0.19838,0.0974 -0.360706,0.19686 -0.360706,0.22135 0,0.10193 0.34169,0.25558 0.699049,0.31431 0.592404,0.0974 0.861983,0.23382 0.886781,0.44848 0.0318,0.27612 0.23185,0.2749 0.347623,-0.002 0.06496,-0.15563 0.152132,-0.24113 0.277337,-0.27232 0.10056,-0.025 0.366032,-0.13266 0.589971,-0.2393 0.325715,-0.15503 0.430991,-0.17922 0.525313,-0.12019 0.136463,0.085 0.551633,0.002 0.591796,-0.11775 0.03119,-0.0939 -0.305482,-0.26517 -0.45442,-0.23124 -0.06268,0.0143 -0.141483,-0.0332 -0.182559,-0.10999 -0.09371,-0.17495 -0.12551,-0.17191 -0.625112,0.0616 -0.491693,0.23003 -0.713198,0.24478 -0.983538,0.0656 -0.108166,-0.0717 -0.25756,-0.13037 -0.331801,-0.13068 -0.07424,-1.5e-4 -0.192295,-0.0436 -0.262277,-0.0968 -0.146959,-0.11105 -0.35675,-0.13114 -0.35675,-0.0341 m 10.819667,0.3359 c -0.413191,0.11243 -0.39813,0.0925 -0.293159,0.39007 0.05309,0.15046 0.09645,0.35447 0.09645,0.45351 0,0.25011 0.248128,0.78698 0.363749,0.78698 0.07272,0 0.09539,-0.0926 0.09539,-0.39022 0,-0.21466 0.0429,-0.55498 0.09539,-0.7564 0.142092,-0.54586 0.09645,-0.60762 -0.357816,-0.48394 m 0.762337,-0.0221 c -0.06146,0.0996 -0.113795,1.48908 -0.05903,1.56803 0.04306,0.0618 0.11775,0.0607 0.338799,-0.005 0.40665,-0.12002 0.447878,-0.23702 0.238848,-0.67835 -0.09523,-0.20097 -0.19047,-0.45716 -0.211616,-0.56943 -0.05675,-0.30001 -0.215572,-0.4634 -0.307004,-0.31568 m -13.470578,0.55102 c -0.04336,0.0432 -0.07865,0.15199 -0.07865,0.24159 0,0.0898 -0.05401,0.22394 -0.119728,0.29848 -0.177691,0.20067 -0.108014,0.95296 0.09767,1.05505 0.486977,0.24158 0.83749,0.70467 0.905037,1.19515 0.06816,0.49565 0.190775,0.57719 0.836425,0.55711 0.690225,-0.0216 0.875218,-0.11076 0.856962,-0.41228 -0.0076,-0.12475 0.03119,-0.38551 0.08626,-0.57947 0.09934,-0.35067 0.09904,-0.35371 -0.06816,-0.52821 -0.188645,-0.19686 -0.200359,-0.26699 -0.09387,-0.56152 0.101168,-0.27992 -0.07713,-0.67425 -0.328151,-0.72552 -0.363901,-0.0745 -0.704678,-0.1751 -0.893778,-0.2638 -0.588601,-0.27581 -1.086074,-0.39052 -1.200022,-0.27658 m 11.205476,0.0478 c -0.244021,0.21161 -0.398891,0.59103 -0.398891,0.97714 0,0.32268 -0.02221,0.37668 -0.247976,0.6026 -0.253453,0.2533 -0.269579,0.25817 -1.159403,0.34656 -0.0858,0.009 -0.142092,0.0785 -0.169019,0.20949 -0.02221,0.10831 -0.08124,0.26181 -0.131138,0.34138 -0.0499,0.0794 -0.06968,0.16552 -0.04412,0.19108 0.06268,0.0627 1.482988,-0.19229 2.068546,-0.3712 0.283119,-0.0866 0.732366,0.0412 0.732366,0.20812 0,0.18666 0.580842,0.28326 0.596512,0.099 0.05279,-0.62207 -0.02982,-1.2805 -0.198381,-1.58309 -0.100407,-0.18043 -0.20401,-0.47191 -0.230176,-0.64778 -0.02601,-0.17587 -0.06283,-0.3604 -0.08185,-0.40985 -0.05385,-0.14026 -0.561674,-0.11516 -0.736474,0.0365 m -6.787393,0.39448 c -0.524097,0.53596 -0.702853,1.30605 -0.453508,1.95414 0.08352,0.21694 0.118968,0.47891 0.116382,0.86137 l -0.0035,0.5495 0.692355,-0.0438 c 1.11361,-0.0706 1.332985,-0.14787 1.41894,-0.50006 0.03894,-0.15928 0.149699,-0.36968 0.245998,-0.4675 0.21679,-0.21998 0.224244,-0.49808 0.02373,-0.90124 -0.213441,-0.42931 -0.318108,-0.46796 -0.55787,-0.20553 -0.127638,0.13981 -0.235348,0.20325 -0.301983,0.17769 -0.146655,-0.0563 -0.128247,-0.27794 0.03575,-0.43068 0.240674,-0.22425 0.125662,-0.93699 -0.180277,-1.11757 -0.463243,-0.27338 -0.672274,-0.24843 -1.036022,0.12369 m -12.077043,0.27627 c -0.166889,0.27003 -0.289661,2.07113 -0.147264,2.16134 0.04838,0.0307 0.604574,0.0586 1.23562,0.0621 1.08866,0.006 1.602108,0.0414 2.655778,0.18348 0.536419,0.0724 0.501429,0.0898 0.537636,-0.26745 0.09767,-0.96452 0.04503,-1.65079 -0.144221,-1.87564 l -0.164152,-0.19488 -1.819505,-0.0315 c -1.000728,-0.0174 -1.88264,-0.0525 -1.959771,-0.0782 -0.0893,-0.0297 -0.159739,-0.0149 -0.194121,0.0408 m -4.773768,0.3995 c -0.05583,0.20842 -0.234132,1.30256 -0.269731,1.65581 -0.02176,0.21633 -0.08291,0.60913 -0.135702,0.87278 -0.10771,0.53855 -0.09174,0.6026 0.151068,0.6026 0.09387,0 0.424145,0.0429 0.733735,0.0954 0.98521,0.16705 3.226883,0.37729 3.296104,0.30914 0.07713,-0.0759 0.217854,-1.65094 0.217854,-2.43732 v -0.75412 l -0.819691,-0.0421 c -0.450768,-0.0231 -0.978668,-0.0747 -1.172941,-0.11471 -0.194274,-0.04 -0.507819,-0.0727 -0.696615,-0.0727 -0.188949,0 -0.469025,-0.0443 -0.622222,-0.0983 -0.339409,-0.11973 -0.652193,-0.12734 -0.681859,-0.0164 m 26.255797,0.17783 c -0.162325,0.0685 -0.461722,0.14301 -0.665275,0.16568 -0.355078,0.0396 -0.371356,0.0497 -0.401174,0.25056 -0.06025,0.4065 0.03894,0.44575 0.695246,0.27475 0.207661,-0.054 0.446357,-0.0983 0.530334,-0.0983 0.08398,0 0.189405,0.0443 0.234284,0.0983 0.08154,0.0983 0.528509,0.13829 0.611877,0.0549 0.05583,-0.056 -0.344428,-0.41547 -0.462635,-0.41547 -0.06679,0 -0.07865,-0.0583 -0.04655,-0.22957 0.05188,-0.27597 -0.03758,-0.29422 -0.496104,-0.10087 m -35.83315,0.67456 c -0.014,0.0452 -0.04016,0.15578 -0.05812,0.246 -0.01795,0.0902 -0.07576,0.2819 -0.1284,0.42627 -0.122467,0.33561 -0.106493,2.1434 0.02038,2.29629 0.04473,0.0539 0.100711,0.19366 0.124444,0.31066 0.04594,0.22592 0.277186,0.32815 0.419734,0.18545 0.09204,-0.0921 0.241586,-0.0917 0.241586,5.7e-4 0,0.0394 -0.05888,0.0872 -0.131138,0.10604 -0.07211,0.0189 -0.131138,0.0765 -0.131138,0.12825 0,0.0517 -0.04686,0.18469 -0.104211,0.29544 -0.09508,0.18408 -0.09508,0.22501 0,0.47435 0.05736,0.15 0.104211,0.43966 0.104211,0.64352 0,0.38688 0.04716,0.54311 0.262276,0.87081 0.205683,0.31309 0.261821,0.48013 0.251475,0.74652 -0.0096,0.24508 0.113491,0.44361 0.34382,0.55437 0.05127,0.0247 0.181798,0.10314 0.289965,0.17434 0.108318,0.0712 0.270491,0.16126 0.360706,0.2002 0.175105,0.0755 0.452746,0.37607 0.456702,0.49444 0.0012,0.0393 0.120033,0.18027 0.26395,0.31339 0.143765,0.13311 0.27962,0.32222 0.301831,0.42034 0.135854,0.60078 0.109079,0.56502 0.489715,0.65296 0.196251,0.0452 0.547981,0.075 0.781657,0.0662 l 0.424906,-0.0161 0.07546,-0.34123 c 0.04169,-0.18759 0.12338,-0.38885 0.181646,-0.44727 0.05842,-0.0583 0.106188,-0.14925 0.106188,-0.20204 0,-0.0528 0.04808,-0.16947 0.106798,-0.25908 0.143461,-0.21892 -0.03743,-0.70726 -0.481652,-1.30028 -0.172519,-0.23033 -0.357968,-0.48484 -0.412127,-0.56547 -0.05401,-0.0806 -0.127791,-0.17982 -0.163847,-0.22059 -0.03606,-0.0406 -0.15411,-0.2066 -0.262124,-0.36892 -0.108167,-0.16233 -0.212073,-0.3099 -0.23109,-0.32785 -0.03773,-0.0361 -0.2533,-0.3601 -0.358424,-0.53931 -0.03651,-0.0622 -0.186363,-0.28343 -0.333018,-0.49185 -1.028568,-1.46184 -1.006661,-1.41544 -0.855594,-1.81144 0.05705,-0.1497 0.132203,-0.40497 0.16689,-0.5673 0.09265,-0.43449 0.198077,-0.84753 0.300157,-1.17629 0.09737,-0.3137 0.08124,-0.39752 -0.07652,-0.39752 -0.05553,0 -0.193969,-0.0412 -0.307613,-0.0917 -0.195794,-0.0869 -0.342602,-0.12992 -1.129128,-0.33058 -0.182863,-0.0467 -0.394783,-0.11836 -0.471154,-0.15913 -0.183776,-0.0984 -0.407563,-0.0945 -0.439207,0.008 m 35.89872,0.50128 c 0,0.13205 0.168715,0.23656 0.22759,0.14117 0.05522,-0.0891 -0.03529,-0.26531 -0.136311,-0.26531 -0.0502,0 -0.09128,0.0558 -0.09128,0.12414 m -0.80326,0.0275 c -0.333778,0.0718 -0.349904,0.10193 -0.240217,0.44514 0.03925,0.12261 0.08413,0.2638 0.0998,0.31369 0.02358,0.0758 0.04732,0.0742 0.141788,-0.009 0.06237,-0.0548 0.17982,-0.11988 0.260907,-0.14452 0.198077,-0.0604 0.283423,-0.23839 0.222874,-0.46461 -0.05903,-0.22105 -0.08261,-0.2279 -0.485151,-0.14118 m -32.076997,0.32373 c -0.01278,0.045 -0.07089,0.24022 -0.129009,0.43374 -0.05812,0.19351 -0.105732,0.41091 -0.105732,0.48302 0,0.0721 -0.04229,0.2679 -0.09387,0.4351 -0.281293,0.91096 -0.36314,0.66649 0.780745,2.33675 0.246911,0.36056 0.658125,0.96543 0.91386,1.34409 0.653409,0.96772 0.759902,1.06858 0.759902,0.71989 0,-0.13829 0.181494,-0.26075 0.386873,-0.26075 0.166737,0 0.268819,-0.18454 0.268819,-0.48621 0,-0.1278 0.04214,-0.46173 0.09356,-0.74196 0.151068,-0.82349 0.229263,-1.26924 0.301679,-1.72259 0.03758,-0.23444 0.110752,-0.61812 0.16263,-0.85256 0.05187,-0.23443 0.102537,-0.56958 0.112577,-0.74484 l 0.01811,-0.31841 -0.491845,-0.11577 c -0.472676,-0.11106 -0.779223,-0.17617 -1.70495,-0.36177 -0.234436,-0.047 -0.529269,-0.11791 -0.655235,-0.15761 -0.304721,-0.0958 -0.589209,-0.0914 -0.618114,0.01 m 29.831065,-0.013 c -0.633328,0.1783 -1.029025,0.28175 -1.386841,0.36268 -0.221657,0.0502 -0.481803,0.1211 -0.577951,0.15761 -0.0963,0.0367 -0.245086,0.0665 -0.330736,0.0665 -0.22181,0 -0.230634,0.0399 -0.159587,0.72552 0.096,0.92862 -0.04777,0.90611 2.455115,0.38536 0.762032,-0.15868 1.093224,-0.38627 0.852398,-0.58617 -0.06983,-0.058 -0.09828,-0.21131 -0.09828,-0.52896 0,-0.60427 -0.180885,-0.74408 -0.75412,-0.58252 m -12.360771,0.26197 c -0.378658,0.0255 -0.798088,0.0501 -0.932116,0.0546 -0.425515,0.014 -0.437686,0.18134 -0.09204,1.25388 0.05234,0.16232 0.130986,0.43525 0.1748,0.60655 l 0.07957,0.31142 h 0.630741 c 0.347015,0 0.866852,-0.0454 1.155448,-0.10102 0.288595,-0.0555 0.62785,-0.0923 0.75412,-0.0819 l 0.229417,0.019 0.01978,-0.30534 c 0.01719,-0.2644 0.05005,-0.32587 0.245542,-0.45898 0.295898,-0.20157 0.287074,-0.26152 -0.10132,-0.69738 -0.19184,-0.21511 -0.327846,-0.43038 -0.327846,-0.51861 0,-0.16963 -0.327694,-0.18424 -1.836088,-0.0823 m 13.521542,0.14499 c -0.18545,0.22333 -0.166433,0.44589 0.05766,0.67729 0.216789,0.22363 0.217701,0.22713 0.106644,0.41517 -0.180581,0.30594 -0.03955,0.7923 0.229873,0.7923 0.239609,0 0.425667,-1.17674 0.205683,-1.29997 -0.08276,-0.0462 -0.09904,-0.11744 -0.06922,-0.30137 0.04959,-0.30594 -0.339407,-0.51391 -0.530638,-0.28342 m -19.911565,0.26181 c -0.01385,0.0452 -0.04153,0.32496 -0.06146,0.62177 -0.04259,0.63622 -0.0105,0.67334 0.581451,0.67334 0.60001,0 0.755185,0.11973 0.755185,0.5819 v 0.3817 l 0.737691,0.0424 c 0.405738,0.0235 1.279131,0.0427 1.940603,0.0429 l 1.202912,3.1e-4 -0.04534,-0.34428 c -0.02495,-0.1894 -0.105732,-0.47708 -0.179364,-0.63941 -0.07379,-0.16232 -0.151981,-0.41197 -0.173888,-0.55483 -0.05446,-0.35416 -0.384439,-0.58845 -0.74834,-0.53109 -0.17054,0.0269 -0.294225,0.008 -0.391589,-0.0602 -0.09371,-0.0657 -0.299549,-0.10041 -0.603054,-0.10163 -0.253452,-0.001 -1.006813,-0.0444 -1.674066,-0.0964 -0.667253,-0.052 -1.236077,-0.0954 -1.264373,-0.0965 -0.02815,-10e-4 -0.06253,0.035 -0.07637,0.08 m 21.164225,0.0771 c -0.152894,0.13236 -0.166129,0.16612 -0.07865,0.2002 0.111361,0.0434 0.583276,-0.19959 0.583276,-0.30015 0,-0.11912 -0.325715,-0.0546 -0.504623,0.1 m -28.209028,0.23976 c -0.03864,0.11106 -0.08748,0.35447 -0.108318,0.54098 -0.02084,0.18636 -0.07911,0.53064 -0.129464,0.76508 -0.101321,0.47237 -0.192905,0.98551 -0.332258,1.86271 -0.111666,0.70224 -0.08261,0.76036 0.380331,0.76036 0.179669,0 0.493366,0.0412 0.696919,0.0917 0.203554,0.0505 0.597577,0.1106 0.875676,0.13357 0.278098,0.0231 0.597576,0.0739 0.70985,0.11319 0.315371,0.10984 0.314763,0.11182 0.522423,-1.68274 0.03743,-0.32465 0.09904,-0.76386 0.136767,-0.97608 0.08428,-0.47374 0.09204,-0.46613 -0.618266,-0.60534 -0.664059,-0.13022 -0.767965,-0.24021 -0.628003,-0.66436 0.103298,-0.31308 -0.0078,-0.40619 -0.570345,-0.47876 -0.781962,-0.10071 -0.85529,-0.0898 -0.935312,0.13966 m 16.959433,0.0431 -0.376984,0.0237 v 0.24615 c 0,0.18911 -0.05233,0.30336 -0.225612,0.49246 -0.123989,0.1354 -0.275817,0.39935 -0.337278,0.58662 -0.06146,0.18713 -0.151829,0.39859 -0.200663,0.46964 -0.172518,0.25101 0.06329,0.60214 0.768422,1.14388 0.18484,0.14209 0.202488,0.18529 0.1713,0.41806 -0.03377,0.25193 0.152437,0.5711 0.333171,0.5711 0.03104,0 0.105732,0.1033 0.165976,0.22942 0.177996,0.37348 0.636067,0.0922 0.636067,-0.39068 0,-0.13022 0.04488,-0.30533 0.0998,-0.38915 0.08611,-0.13144 0.09098,-0.30427 0.03545,-1.25996 -0.09554,-1.64242 -0.236414,-2.20364 -0.546765,-2.17733 -0.08017,0.007 -0.315523,0.0231 -0.522879,0.0361 m 5.275044,0.22546 c -0.309438,0.21785 -0.460201,0.23687 -1.258593,0.15958 -0.698744,-0.0675 -0.699505,-0.0665 -0.566389,0.75702 0.06024,0.37318 0.116533,0.78105 0.124901,0.9064 0.0105,0.15807 0.05827,0.24935 0.155783,0.29757 0.07728,0.0384 0.185298,0.1068 0.239913,0.15213 0.06481,0.0539 0.262581,0.0756 0.571258,0.063 l 0.471915,-0.0193 0.142092,-0.26623 c 0.0782,-0.14636 0.26684,-0.3922 0.419429,-0.54616 0.301527,-0.30457 0.33454,-0.50538 0.222266,-1.35094 -0.05295,-0.39843 -0.138289,-0.42338 -0.522575,-0.15304 m -3.183526,0.24523 c -0.501124,0.0534 -0.646563,0.20843 -0.559391,0.59651 0.03271,0.1459 0.06663,0.78075 0.07515,1.41073 0.01704,1.24551 0.04503,1.31777 0.405281,1.0453 0.06998,-0.053 0.175561,-0.0961 0.234437,-0.0961 0.118967,0 0.39235,-0.26243 0.39235,-0.37653 0,-0.0402 0.09143,-0.14453 0.203096,-0.23201 0.228351,-0.1786 0.227287,-0.15502 0.06527,-1.61427 -0.09949,-0.89591 -0.014,-0.81893 -0.816192,-0.73359 m 6.978472,0.52608 c -0.05188,0.0327 -0.265775,0.0794 -0.475566,0.10375 -0.209791,0.0243 -0.400717,0.0753 -0.424146,0.11334 -0.04686,0.0758 0.317197,0.41228 0.551177,0.50934 0.09615,0.04 0.147416,0.11714 0.147416,0.22212 0,0.20522 0.161109,0.36694 0.365423,0.36694 0.18195,0 0.209791,-0.0963 0.0534,-0.18393 -0.156241,-0.0875 -0.16263,-0.74225 -0.009,-0.91249 0.207812,-0.22988 0.05751,-0.38764 -0.208727,-0.21907 m -22.693004,0.37546 c 0,0.13205 -0.0429,0.49352 -0.09539,0.80326 -0.09387,0.55376 -0.235958,1.6514 -0.255431,1.97286 -0.009,0.14939 0.01917,0.16765 0.317957,0.20507 1.420766,0.1783 4.066199,0.41152 4.178625,0.36831 0.121097,-0.0464 0.173888,-0.6248 0.193208,-2.11388 l 0.01354,-1.04865 -0.750013,-0.0797 c -0.412584,-0.044 -1.192719,-0.11181 -1.733703,-0.15091 -0.540983,-0.0391 -1.086835,-0.0992 -1.213105,-0.13357 -0.4958,-0.13479 -0.655691,-0.0916 -0.655691,0.17723 m 20.722127,0.0539 c -0.148024,0.17845 -0.0213,0.3429 0.134942,0.1751 0.08504,-0.0913 0.210856,-0.14148 0.354925,-0.14148 0.122619,0 0.241283,-0.0294 0.263494,-0.0656 0.06892,-0.11121 -0.660103,-0.0803 -0.753361,0.032 m 2.790111,-0.038 c -0.07028,0.11349 0.01871,0.41396 0.113339,0.38246 0.116838,-0.0389 0.129009,-0.19731 0.02586,-0.33834 -0.06557,-0.0896 -0.103754,-0.10163 -0.139201,-0.0441 m -0.430083,0.36671 c 0,0.22729 0.02419,0.29514 0.105276,0.29514 0.06922,0 0.09174,-0.0358 0.06557,-0.10376 -0.02176,-0.057 -0.03971,-0.18986 -0.03971,-0.29513 0,-0.10513 -0.02951,-0.19138 -0.06557,-0.19138 -0.03606,0 -0.06557,0.13281 -0.06557,0.29513 m -2.964911,0.0186 c -0.184537,0.0233 -0.772834,0.56031 -0.772834,0.70559 0,0.0436 -0.04427,0.11623 -0.09843,0.16111 -0.05401,0.0449 -0.09828,0.12733 -0.09828,0.18317 0,0.0558 -0.04853,0.15517 -0.10771,0.22059 -0.140114,0.15487 0.280684,0.57993 0.574149,0.57993 0.285704,0 0.581754,-0.20203 0.582363,-0.39737 1.52e-4,-0.0923 0.04367,-0.22501 0.0966,-0.29514 0.05294,-0.07 0.09721,-0.19229 0.09843,-0.27171 0.0011,-0.0794 0.07318,-0.19746 0.160043,-0.26227 l 0.158066,-0.11791 -0.13555,-0.2428 c -0.150155,-0.26867 -0.197468,-0.29605 -0.456854,-0.26319 m -9.641858,0.19443 c -0.83825,0.0205 -0.977452,0.0622 -0.672122,0.20127 0.09022,0.041 0.167042,0.11227 0.170693,0.15806 0.03788,0.47466 0.06663,0.60641 0.153958,0.70286 0.08276,0.0913 0.101624,0.30411 0.101624,1.14191 0,1.24413 -0.17769,1.12942 1.600435,1.03191 0.907015,-0.0497 1.453323,-0.0545 1.561184,-0.0134 0.261973,0.0995 0.327086,-0.0239 0.182255,-0.34549 -0.06694,-0.14863 -0.13768,-0.32206 -0.157,-0.3852 -0.01932,-0.0631 -0.09311,-0.11471 -0.163999,-0.11471 -0.164151,0 -0.397066,-0.32495 -0.44514,-0.6213 -0.02038,-0.12597 -0.07759,-0.26259 -0.127031,-0.30366 -0.04959,-0.041 -0.09006,-0.11304 -0.09006,-0.15974 0,-0.0469 -0.143614,-0.24235 -0.319175,-0.43464 -0.17556,-0.1923 -0.34032,-0.4456 -0.36603,-0.5632 -0.05142,-0.23474 -0.207662,-0.35143 -0.441641,-0.32952 -0.08352,0.008 -0.528052,0.0236 -0.987949,0.0349 m 11.076163,0.23824 c -0.09584,0.12551 -0.20264,0.30335 -0.237478,0.39493 -0.03499,0.0919 -0.13479,0.18454 -0.222875,0.2066 -0.155783,0.0391 -0.295137,0.30624 -0.395392,0.75853 -0.07074,0.31842 -0.467199,0.54509 -1.018376,0.58222 -0.337277,0.0227 -0.495951,0.061 -0.517098,0.12489 -0.03894,0.11821 0.746971,0.0666 1.32903,-0.0872 0.214963,-0.0569 0.483173,-0.1033 0.596055,-0.1033 0.113035,0 0.35021,-0.044 0.527292,-0.0977 0.17693,-0.0537 0.408476,-0.098 0.514208,-0.0984 0.219679,-5.7e-4 0.958435,-0.19062 1.046519,-0.26881 0.03347,-0.0298 0.01248,-0.14894 -0.04929,-0.27886 -0.05918,-0.12475 -0.107557,-0.28601 -0.107557,-0.35842 0,-0.10194 -0.08109,-0.157 -0.359946,-0.24479 -0.422168,-0.13266 -0.474653,-0.18362 -0.503558,-0.48941 -0.03256,-0.34351 -0.353861,-0.36496 -0.601533,-0.0403 m 2.069764,-0.0724 c -0.178908,0.0828 -0.158066,0.20325 0.04001,0.23231 0.08611,0.0128 0.158979,-0.0215 0.183928,-0.0863 0.05933,-0.15472 -0.05051,-0.22622 -0.223939,-0.14605 m -18.688572,0.48074 c -0.0359,0.0683 -0.08656,0.56944 -0.112578,1.11392 l -0.04716,0.98977 0.508579,0.0431 c 1.210519,0.10223 4.358598,0.0509 4.408954,-0.0718 0.135093,-0.32891 0.05127,-1.29997 -0.133117,-1.54156 -0.09904,-0.13007 -0.20903,-0.31217 -0.244172,-0.40482 l -0.06405,-0.16842 h -1.532584 c -0.842966,0 -1.799424,-0.0189 -2.125444,-0.0421 -0.539157,-0.0382 -0.598945,-0.0307 -0.658429,0.082 m 12.040075,0.58099 c -0.131291,0.0891 -0.293312,0.27825 -0.359794,0.4202 -0.143157,0.30472 -0.571257,0.51755 -1.16427,0.57886 -0.328454,0.0339 -0.377441,0.0598 -0.496713,0.26182 -0.22044,0.37349 -0.162325,0.56988 0.123379,0.41699 0.06374,-0.0342 0.541288,-0.0926 1.061277,-0.13007 1.539886,-0.1106 2.090758,-0.21725 2.275143,-0.44042 0.369986,-0.44773 0.37318,-0.4596 0.185297,-0.68293 -0.09402,-0.11151 -0.170845,-0.2606 -0.170845,-0.33104 0,-0.15806 -0.03636,-0.16947 -0.689312,-0.21724 -0.484542,-0.0355 -0.544026,-0.0259 -0.764162,0.12383 m -21.076597,1.26438 c -0.08808,0.29787 -0.274903,0.57521 -0.453507,0.67318 -0.272165,0.1494 -0.325867,0.49215 -0.156544,1.00088 0.125813,0.3779 0.09387,0.63744 -0.07881,0.63744 -0.03667,0 -0.109839,0.096 -0.16263,0.21314 -0.05279,0.11729 -0.130986,0.26288 -0.173887,0.32358 -0.06101,0.0864 -0.05857,0.14681 0.0108,0.27643 0.06633,0.12383 0.07013,0.18849 0.01521,0.25467 -0.07713,0.0931 0.06222,0.37485 0.18545,0.37485 0.03225,0 0.188188,0.0875 0.34671,0.19443 0.15837,0.10695 0.359032,0.225 0.4459,0.26212 0.08672,0.0373 0.202032,0.0951 0.256192,0.1284 0.779679,0.48089 1.446324,0.72172 2.00602,0.72507 l 0.268513,0.002 0.07379,-0.60656 c 0.04062,-0.33362 0.105427,-0.87217 0.144221,-1.19682 0.03864,-0.3245 0.101016,-0.76614 0.138593,-0.98141 0.0782,-0.44788 0.198533,-1.41605 0.212073,-1.70708 0.01034,-0.22135 -0.05127,-0.239 -1.597392,-0.45579 -0.378658,-0.0531 -0.806455,-0.12642 -0.950828,-0.16308 -0.375007,-0.0952 -0.491237,-0.0854 -0.529878,0.045 m 26.292765,-0.0215 c -0.148633,0.0466 -0.458375,0.10406 -0.688552,0.12795 -1.12928,0.11714 -1.56803,0.24341 -1.859972,0.53535 -0.150916,0.15091 -0.41943,0.35964 -0.596664,0.46385 -0.312024,0.18347 -0.316436,0.19017 -0.138137,0.21055 0.101473,0.0117 0.221049,-0.009 0.265928,-0.0466 0.180429,-0.1497 1.127302,-0.16689 1.363716,-0.0247 0.174648,0.10512 0.298332,0.12566 0.612334,0.10193 0.378201,-0.0288 0.407411,-0.0195 0.749557,0.23778 0.44301,0.33302 0.579777,0.33743 0.791546,0.0248 0.09006,-0.13312 0.245085,-0.33119 0.344123,-0.44027 0.205227,-0.22576 0.222114,-0.31522 0.082,-0.4316 -0.147568,-0.12231 -0.121554,-0.37638 0.04792,-0.46705 l 0.146199,-0.0782 -0.146199,-0.0653 c -0.08048,-0.0359 -0.146199,-0.10497 -0.146199,-0.1535 0,-0.11395 -0.456398,-0.11121 -0.827601,0.005 m -22.608419,0.5133 c -0.01567,0.0811 -0.06161,0.31263 -0.102081,0.51436 -0.04047,0.20173 -0.100712,0.64443 -0.133725,0.98369 -0.06481,0.66284 -0.141331,1.256 -0.305786,2.37098 -0.132964,0.90139 0.02525,1.18801 0.3852,0.69799 0.138897,-0.18895 0.171149,-0.20082 0.453051,-0.16796 0.230328,0.0269 0.364053,0.003 0.55437,-0.0989 0.232611,-0.1246 0.277186,-0.12794 0.614464,-0.0458 0.212834,0.0519 0.730845,0.0888 1.249008,0.0893 l 0.88526,5.8e-4 0.04579,-0.91797 c 0.0251,-0.50493 0.07561,-1.18375 0.112273,-1.50825 0.03651,-0.32465 0.07485,-0.82623 0.08535,-1.11482 l 0.01887,-0.52456 -0.78683,-0.0444 c -0.432817,-0.0245 -0.978821,-0.0755 -1.213257,-0.11349 -0.234436,-0.0379 -0.573692,-0.0698 -0.754121,-0.071 -0.180277,-0.001 -0.472676,-0.046 -0.649758,-0.0997 -0.414713,-0.12581 -0.42445,-0.12474 -0.458072,0.0499 m 18.38674,0.14483 c -0.234436,0.0467 -0.795043,0.11867 -1.245964,0.15974 -1.055952,0.0963 -1.651095,0.18925 -1.732182,0.27019 -0.03545,0.0356 -0.198685,0.0675 -0.362836,0.0712 -0.493822,0.0108 -0.615984,0.07 -0.69053,0.33499 -0.03682,0.13084 -0.089,0.26 -0.116077,0.28692 -0.291333,0.29088 0.412432,0.36452 1.524673,0.15959 0.162325,-0.0298 0.699201,-0.0753 1.193175,-0.10101 l 0.898039,-0.0467 0.289203,-0.30381 c 0.158979,-0.16704 0.440576,-0.40711 0.625721,-0.53323 0.55422,-0.37789 0.444836,-0.46293 -0.383222,-0.29787 m -13.885289,0.14833 c -0.04518,0.0161 -0.082,0.0692 -0.082,0.11821 0,0.10466 0.246455,0.14178 1.32979,0.19975 0.993122,0.0532 0.978061,0.0389 0.922837,0.88297 l -0.0426,0.64839 0.21618,0.1173 c 0.118816,0.0645 0.262429,0.16902 0.319327,0.232 0.07302,0.0811 0.202488,0.11486 0.441336,0.11486 0.205227,0 0.367096,0.035 0.412127,0.0893 0.09006,0.10847 1.05367,0.17419 1.801097,0.12308 l 0.515425,-0.0355 -0.04031,-0.69509 c -0.0607,-1.05063 -0.110753,-1.47341 -0.184841,-1.56393 -0.0502,-0.0613 -0.450921,-0.0819 -1.588721,-0.0819 -0.836729,0 -1.829089,-0.028 -2.205009,-0.0619 -0.938353,-0.085 -1.716511,-0.12262 -1.814636,-0.0876 m 8.082041,0.52075 c -0.07226,0.014 -0.498386,0.0469 -0.947329,0.073 l -0.816039,0.0474 0.0175,1.0164 c 0.01841,1.07512 0.02434,1.09824 0.380027,1.47888 l 0.186971,0.20005 0.607008,-0.0485 c 0.770856,-0.0616 0.888455,-0.0979 0.845705,-0.26163 -0.03286,-0.12536 0.133877,-0.68491 0.254671,-0.85469 0.03438,-0.0482 0.125661,-0.22059 0.202944,-0.38292 0.07728,-0.16217 0.195186,-0.40878 0.261972,-0.54798 0.121098,-0.25238 0.120946,-0.25299 -0.02632,-0.35218 -0.08382,-0.0565 -0.147568,-0.16674 -0.147568,-0.25528 0,-0.15715 -0.346406,-0.20462 -0.819539,-0.11258 m -8.193554,0.36694 c -0.01385,0.0447 -0.04351,0.46507 -0.06603,0.93394 -0.02236,0.46888 -0.06785,0.98521 -0.100864,1.14754 -0.03317,0.16232 -0.06146,0.56807 -0.06314,0.90169 -0.0043,0.92922 -0.02297,0.93911 -1.445411,0.7704 -1.170508,-0.13874 -1.138864,-0.15289 -0.704982,0.31537 0.153349,0.16552 0.347775,0.44255 0.432208,0.61568 0.08443,0.17328 0.217246,0.44347 0.295137,0.60062 0.258474,0.52166 0.746211,0.8133 0.894996,0.5352 0.240674,-0.4497 1.026895,-0.60701 1.493789,-0.29878 0.441489,0.29148 0.564564,0.4497 1.18633,1.52375 0.150307,0.2597 0.301527,0.48957 0.335909,0.51086 0.03453,0.0213 0.125356,0.25148 0.202031,0.51147 0.165673,0.56138 0.315827,0.74515 0.640478,0.78364 0.132356,0.0158 0.287988,0.0497 0.34595,0.0755 0.09128,0.0405 0.109992,-0.0315 0.138593,-0.53384 0.02693,-0.47115 0.0642,-0.62952 0.197468,-0.83961 0.231546,-0.36497 0.86746,-0.94733 1.034349,-0.94733 0.238848,0 0.786525,-0.37821 0.786525,-0.54312 0,-0.20386 0.281141,-0.44301 0.481196,-0.40908 0.269731,0.0457 0.432513,-0.084 0.506601,-0.40346 0.07652,-0.32982 0.07744,-0.98719 0.0014,-1.03419 -0.18195,-0.11258 -0.333474,-0.62116 -0.334539,-1.12259 -0.0011,-0.62146 -0.0047,-0.62816 -0.439663,-0.81452 -0.3388,-0.14498 -0.34595,-0.14528 -0.672426,-0.0278 -0.284336,0.10224 -0.362228,0.10695 -0.562434,0.0347 -0.177539,-0.0642 -0.254214,-0.066 -0.324499,-0.008 -0.09584,0.0796 -0.07379,0.0841 -0.950828,-0.19792 -0.198229,-0.0637 -0.449096,-0.13555 -0.557262,-0.15959 -0.861983,-0.19108 -1.095203,-0.45822 -1.074512,-1.23075 0.0094,-0.35112 0.0043,-0.64976 -0.01156,-0.66345 -0.08854,-0.0773 -1.641662,-0.10193 -1.664786,-0.0265 m 15.931321,0.0137 c -0.03606,0.0111 -0.236719,0.0581 -0.445749,0.10436 -0.569889,0.12627 -0.608987,0.0631 0.883282,1.42625 0.618266,0.56471 1.171269,0.35447 1.389274,-0.52836 0.02449,-0.0992 0.07348,-0.18043 0.108775,-0.18043 0.155632,0 0.04245,-0.26851 -0.190927,-0.45351 -0.273077,-0.21618 -0.566998,-0.26029 -0.897885,-0.13448 -0.149395,0.0567 -0.218767,0.0409 -0.429167,-0.0983 -0.246454,-0.16324 -0.286161,-0.17617 -0.417603,-0.13555 m -1.967226,0.49398 c -0.07226,0.0311 -0.240065,0.0584 -0.373181,0.061 -0.294529,0.006 -0.343668,0.0726 -0.2568,0.3493 0.03682,0.11698 0.130378,0.43403 0.207965,0.70453 0.07759,0.27048 0.166585,0.53611 0.19762,0.59011 0.249345,0.4348 0.311415,0.65554 0.238391,0.84891 -0.07713,0.20431 0.01658,0.74712 0.152742,0.88465 0.03773,0.0381 0.402999,0.0285 0.962999,-0.0252 1.155142,-0.1109 1.292062,-0.1926 1.358391,-0.81117 0.06815,-0.63728 -0.07896,-0.85072 -1.364781,-1.97909 -0.205531,-0.18027 -0.465525,-0.40909 -0.577951,-0.50812 -0.211921,-0.18713 -0.322826,-0.21056 -0.545395,-0.11486 m -2.029752,0.23976 c -0.737083,0.11394 -0.683684,-0.0294 -0.670296,1.80201 0.01217,1.65931 0.04427,1.83502 0.293767,1.6091 0.115773,-0.10482 0.972584,-0.28205 1.55373,-0.32145 l 0.262277,-0.0179 0.01932,-0.51527 c 0.01324,-0.35371 -0.009,-0.55924 -0.07074,-0.65569 -0.04959,-0.0773 -0.154111,-0.35432 -0.232459,-0.61583 -0.0782,-0.26152 -0.204618,-0.68201 -0.280837,-0.9344 -0.07622,-0.25254 -0.172062,-0.45518 -0.213137,-0.45032 -0.04108,0.005 -0.338799,0.0497 -0.661625,0.0998 m -1.871991,0.16279 c -0.447726,0.0615 -0.784091,0.30274 -0.788959,0.56578 -0.0012,0.0625 -0.04549,0.17099 -0.09843,0.24098 -0.06511,0.0861 -0.0963,0.28905 -0.0963,0.62679 0,0.33773 0.03119,0.54082 0.0963,0.62678 0.145743,0.1926 0.120945,0.3814 -0.106493,0.81558 -0.237783,0.45351 -0.219375,0.50964 0.132203,0.40422 0.598642,-0.17937 1.095963,-0.0473 1.136126,0.30168 0.01795,0.15609 0.04959,0.17967 0.241435,0.17967 h 0.220896 l -0.01141,-1.86469 c -0.0062,-1.02553 -0.02617,-1.88858 -0.04427,-1.91794 -0.03773,-0.0611 -0.09447,-0.0593 -0.681097,0.0212 m -2.655778,2.08498 -0.524554,0.0371 0.01339,0.38505 c 0.0073,0.21177 0.05324,0.43296 0.102081,0.49169 0.187427,0.22592 0.235958,0.4564 0.198837,0.94611 l -0.03727,0.49245 0.202489,0.10467 c 0.253149,0.13084 0.552697,0.13373 0.79687,0.007 0.181646,-0.0939 0.730997,0.0525 0.854681,0.2279 0.09265,0.13113 0.338495,0.20446 0.430535,0.12809 0.127791,-0.10604 0.118359,-0.21025 -0.03697,-0.40787 -0.07211,-0.0917 -0.131139,-0.21268 -0.131139,-0.26882 0,-0.0561 0.05903,-0.13372 0.131139,-0.17221 0.254365,-0.13631 0.125357,-0.19138 -0.415931,-0.17784 -0.384439,0.01 -0.579473,-0.0129 -0.655843,-0.0762 -0.119576,-0.099 -0.146504,-0.3706 -0.04306,-0.43449 0.03606,-0.0224 0.06557,-0.091 0.06557,-0.15244 0,-0.0615 0.05903,-0.22196 0.131139,-0.3566 0.160804,-0.3 0.176017,-0.73845 0.02738,-0.7955 -0.109079,-0.0419 -0.256191,-0.0389 -1.109351,0.0215 m -19.217232,0.91447 c -0.182559,0.10619 -0.403912,0.29848 -0.491845,0.42734 -0.08793,0.12886 -0.24113,0.26273 -0.340321,0.29742 -0.249497,0.0875 -0.228046,0.17678 0.148178,0.61629 0.359337,0.41988 0.37166,0.45016 0.230785,0.567 -0.07774,0.0645 -0.141636,0.0522 -0.327846,-0.063 -0.202792,-0.12521 -0.236261,-0.13008 -0.271252,-0.0393 -0.02191,0.057 -0.08078,0.10375 -0.131138,0.10375 -0.09797,0 -0.1284,0.36832 -0.04108,0.49763 0.07515,0.11121 0.295289,0.14453 0.625112,0.0945 0.324803,-0.0493 0.37379,-0.0109 0.37379,0.29209 0,0.17648 -0.368769,0.42734 -0.628307,0.42734 -0.105124,0 -0.184081,0.0516 -0.225613,0.14757 -0.03499,0.0811 -0.09919,0.19686 -0.142396,0.25725 -0.06253,0.0873 -0.05705,0.15488 0.02617,0.328 0.05781,0.11988 0.136767,0.29909 0.175561,0.39829 0.05827,0.14878 0.110448,0.18027 0.299549,0.18027 0.203097,0 0.235501,0.0242 0.285857,0.21314 0.04032,0.15167 0.09219,0.20994 0.179517,0.20173 0.06739,-0.006 0.182863,0.0214 0.256495,0.0616 0.07363,0.04 0.22972,0.0651 0.347015,0.0555 0.249953,-0.0204 0.263189,0.0417 0.0893,0.41882 -0.166281,0.36055 -0.632263,0.81969 -0.832013,0.81969 -0.08748,0 -0.158978,0.0295 -0.158978,0.0656 0,0.0361 0.06055,0.0656 0.134485,0.0656 0.397826,0 1.796989,-1.27486 1.652616,-1.50596 -0.06283,-0.1007 -0.04944,-0.16323 0.07439,-0.34564 0.08306,-0.12247 0.169323,-0.29453 0.191534,-0.38231 0.04427,-0.17419 0.275209,-0.35127 0.376681,-0.28859 0.03818,0.0236 0.02388,0.0958 -0.03545,0.18073 -0.107254,0.15304 -0.136463,0.57126 -0.04016,0.57126 0.127943,0 0.531247,-0.47785 0.531247,-0.62938 0,-0.18666 0.138896,-0.20263 0.590122,-0.0678 0.333778,0.0996 1.442673,0.0686 1.442673,-0.0405 0,-0.0371 -0.08124,-0.0493 -0.187275,-0.0281 -0.217093,0.0435 -0.469025,-0.10238 -0.467503,-0.27064 7.47e-4,-0.103 -0.183777,-0.76842 -0.340017,-1.22574 -0.03697,-0.10816 -0.09098,-0.3 -0.120032,-0.42627 -0.02891,-0.12627 -0.08428,-0.31796 -0.122924,-0.42628 -0.133724,-0.37409 -0.33606,-1.10448 -0.33606,-1.21265 0,-0.25284 -0.292399,-0.41197 -0.626178,-0.34092 -0.287378,0.0613 -0.835665,0.0114 -1.636187,-0.14894 -0.147416,-0.0295 -0.279922,0.009 -0.528508,0.15365 m 28.299242,0.431 c 0,0.11714 -0.300462,0.2574 -0.408324,0.19062 -0.03818,-0.0236 -0.546308,-0.0373 -1.129128,-0.0304 -0.7812,0.009 -1.104178,-0.0106 -1.229839,-0.0758 -0.144222,-0.0749 -0.268515,-0.0726 -0.811172,0.0146 -0.778157,0.12521 -0.912338,0.26472 -0.254365,0.26472 0.432817,0 0.731758,0.11181 1.001488,0.37469 0.140115,0.13647 0.364054,0.0978 0.639414,-0.11044 0.366031,-0.27718 0.555132,-0.25817 0.903668,0.0904 0.158978,0.15882 0.410605,0.36937 0.559087,0.46765 l 0.270187,0.17875 v 0.4809 c 0,0.40239 0.01993,0.49139 0.122467,0.54631 0.0858,0.0459 0.113186,0.11471 0.09113,0.22957 -0.03484,0.1824 0.282357,0.56197 0.469632,0.56197 0.05766,0 0.163391,0.1284 0.24037,0.2921 0.07774,0.16551 0.290877,0.42338 0.492149,0.59514 0.195034,0.16674 0.354773,0.34732 0.354773,0.40102 0,0.14757 0.278707,0.0823 0.361619,-0.0846 0.03833,-0.0773 0.112883,-0.19245 0.165521,-0.25603 0.130833,-0.15777 0.108318,-1.03283 -0.03225,-1.24719 -0.05568,-0.0852 -0.101473,-0.19442 -0.101473,-0.2428 0,-0.0484 -0.07546,-0.18956 -0.167802,-0.31385 -0.209943,-0.28266 -0.487889,-0.82776 -0.487889,-0.95692 0,-0.0535 -0.08109,-0.20233 -0.180277,-0.33073 -0.09919,-0.1284 -0.284032,-0.42856 -0.410758,-0.66695 -0.218311,-0.41121 -0.458223,-0.60625 -0.458223,-0.37272 m -22.579362,1.71894 c -0.140875,0.14088 -0.0021,0.38003 0.179821,0.3102 0.134637,-0.0516 0.134941,-0.26243 6.32e-4,-0.314 -0.1284,-0.0493 -0.127182,-0.0493 -0.180429,0.004 m 1.726704,0.87005 c 0,0.14651 0.241739,0.24798 0.344885,0.14483 0.04868,-0.0487 0.04427,-0.0995 -0.0146,-0.17054 -0.120793,-0.14544 -0.33028,-0.12931 -0.33028,0.0257 m 1.70495,0.71426 c 0,0.0951 0.299549,0.33926 0.416235,0.33926 0.147569,0 0.210247,-0.17237 0.10771,-0.2959 -0.08428,-0.10162 -0.523945,-0.13799 -0.523945,-0.0434 m -4.250888,0.22881 c -0.194577,0.20705 -0.179364,0.28342 0.06633,0.33256 0.114708,0.023 0.258169,0.0866 0.318565,0.14118 0.08778,0.0794 0.148026,0.085 0.298637,0.0276 0.159739,-0.0607 0.204162,-0.0526 0.28966,0.053 0.05553,0.0686 0.181342,0.14483 0.279467,0.16948 0.09858,0.0248 0.178604,0.0905 0.178604,0.1468 0,0.13601 0.221506,0.0914 0.248737,-0.0501 0.01445,-0.0745 -0.04108,-0.12155 -0.179212,-0.15182 -0.109992,-0.0242 -0.303961,-0.14499 -0.430992,-0.26837 -0.247824,-0.24067 -0.331497,-0.27201 -0.378962,-0.14239 -0.02252,0.0615 -0.05005,0.0633 -0.109535,0.007 -0.05599,-0.0526 -0.05842,-0.0876 -0.0082,-0.11867 0.123531,-0.0764 0.0782,-0.15228 -0.135246,-0.22667 -0.273382,-0.0952 -0.27323,-0.0952 -0.437838,0.0799 m 5.300147,0.8565 c 0,0.0497 -0.04427,0.12703 -0.09843,0.17207 -0.124901,0.1036 -0.124749,0.30837 4.56e-4,0.54843 0.05385,0.1033 0.09797,0.24433 0.09797,0.31355 0,0.18438 0.181798,0.22318 0.347623,0.0739 0.07926,-0.0715 0.269731,-0.1859 0.423232,-0.25421 0.366031,-0.16323 0.345341,-0.29833 -0.101168,-0.66193 -0.343971,-0.27992 -0.669687,-0.37318 -0.669687,-0.19184 m -4.023755,0.15198 c -0.07378,0.0738 -0.04488,0.15123 0.05644,0.15123 0.05416,0 0.09843,-0.0278 0.09843,-0.0618 0,-0.0826 -0.102385,-0.14194 -0.154871,-0.0895 m 0.563347,0.0323 c 0.04047,0.12171 0.181646,0.14179 0.181646,0.026 0,-0.057 -0.04671,-0.10376 -0.103754,-0.10376 -0.0572,0 -0.09219,0.035 -0.07789,0.0777 m -5.488182,0.55087 c -0.06116,0.0933 -0.09615,0.18469 -0.07759,0.2031 0.05112,0.0511 0.365879,-0.19747 0.368313,-0.29073 0.0035,-0.1427 -0.175256,-0.0887 -0.290725,0.0876"
       id="path0"
       sodipodi:nodetypes="cscccssccccccccsscccccccccscccccsscccccccccssccccccccccccccccccsccccccccccccccscccccccccsccccccscccscccccccccccscccscccsccccscssccccscccsccccccccccccccccssscccccccccsccccccccccccsccccscscccccccccccccccccccccccccccccccsccsccssccccccsccscccsccccscsccscccccccccccccscccccccccccsccccccscccccccccsscccsssccscccccccccscccsccccccsccccccsccccscccccssccccccccccsccccscccccssccccccccccscccccscsccccccccccccccccccccssccccsccsscccccccccccsccccscccccccscssccscscscccccccccccscccssccssccccccccccsccccscccccccccccccccsccccccccccscccccsccccsccccccccccccccsccccccccccccsccsccccccccccccccccccccccccccccccscccccscccccsccccccccccccccsccccccccccccccccccsscccccccccccccccccscccccccscccccccccccccccccsccccsccccscccccccccccccccsccccsccccscccccsccssccccscccccssscccccsscscccccsccccccccscccccsccsccscccscsscccccccscccsccccccccscccccccccccscccccssccssccccc" />
    <text
       id="text4627-3-2-0"
       y="142.8727"
       x="-71.575401"
       style="font-style:normal;font-variant:normal;font-weight:500;font-stretch:normal;font-size:8.46666622px;line-height:4.23333311px;font-family:Montserrat;-inkscape-font-specification:'Montserrat Medium';text-align:center;letter-spacing:-0.62177084px;text-anchor:middle;opacity:1;fill:#eeeeee;fill-opacity:1;fill-rule:nonzero;stroke:none;stroke-width:4.23333311;stroke-linecap:butt;stroke-linejoin:round;stroke-miterlimit:4;stroke-dasharray:none;stroke-dashoffset:0;stroke-opacity:1;paint-order:stroke fill markers;"
       xml:space="preserve"><tspan
         style="font-style:normal;font-variant:normal;font-weight:600;font-stretch:normal;font-size:8.46666622px;line-height:4.23333359px;font-family:Montserrat;-inkscape-font-specification:'Montserrat Semi-Bold';text-align:center;letter-spacing:-0.62177084px;text-anchor:middle;fill:#eeeeee;fill-opacity:1;stroke-width:4.23333311;"
         y="142.8727"
         x="-71.575401"
         id="tspan4625-6-9-9"
         sodipodi:role="line">FEDERALIZM</tspan></text>
  </g>
</svg>
