<?xml version="1.0" encoding="UTF-8" standalone="no"?>
<!-- Created with Inkscape (http://www.inkscape.org/) -->

<svg
   xmlns:dc="http://purl.org/dc/elements/1.1/"
   xmlns:cc="http://creativecommons.org/ns#"
   xmlns:rdf="http://www.w3.org/1999/02/22-rdf-syntax-ns#"
   xmlns:svg="http://www.w3.org/2000/svg"
   xmlns="http://www.w3.org/2000/svg"
   xmlns:sodipodi="http://sodipodi.sourceforge.net/DTD/sodipodi-0.dtd"
   xmlns:inkscape="http://www.inkscape.org/namespaces/inkscape"
   width="200"
   height="200"
   viewBox="0 0 52.916668 52.916666"
   version="1.1"
   id="svg8"
   inkscape:version="0.92.4 (5da689c313, 2019-01-14)"
   sodipodi:docname="liberty.svg">
  <defs
     id="defs2">
    <inkscape:path-effect
       effect="envelope"
       id="path-effect4658"
       is_visible="true"
       yy="true"
       xx="true"
       bendpath1="m -199.08406,108.42369 h 7.0057"
       bendpath2="m -192.07836,108.42369 v 6.75242"
       bendpath3="m -199.08406,115.17611 h 7.0057"
       bendpath4="m -199.08406,108.42369 v 6.75242" />
    <inkscape:path-effect
       effect="bend_path"
       id="path-effect4656"
       is_visible="true"
       bendpath="m -192.00142,114.60623 c 2.12577,-0.53066 4.48261,0.85111 7.0057,0"
       prop_scale="1"
       scale_y_rel="false"
       vertical="false"
       bendpath-nodetypes="cc" />
    <inkscape:path-effect
       effect="bounding_box"
       id="path-effect4654"
       is_visible="true"
       linkedpath=""
       visualbounds="false" />
  </defs>
  <sodipodi:namedview
     id="base"
     pagecolor="#ffffff"
     bordercolor="#666666"
     borderopacity="1.0"
     inkscape:pageopacity="0.0"
     inkscape:pageshadow="2"
     inkscape:zoom="1"
     inkscape:cx="-1.8687224"
     inkscape:cy="27.35013"
     inkscape:document-units="px"
     inkscape:current-layer="layer1"
     showgrid="false"
     fit-margin-top="0"
     fit-margin-left="0"
     fit-margin-right="0"
     fit-margin-bottom="0"
     inkscape:window-width="1366"
     inkscape:window-height="707"
     inkscape:window-x="0"
     inkscape:window-y="0"
     inkscape:window-maximized="1"
     showguides="false"
     inkscape:object-nodes="true"
     units="px"
     inkscape:snap-page="true"
     inkscape:snap-bbox="true"
     inkscape:bbox-paths="true"
     inkscape:bbox-nodes="true"
     inkscape:snap-bbox-edge-midpoints="true"
     inkscape:snap-bbox-midpoints="true" />
  <metadata
     id="metadata5">
    <rdf:RDF>
      <cc:Work
         rdf:about="">
        <dc:format>image/svg+xml</dc:format>
        <dc:type
           rdf:resource="http://purl.org/dc/dcmitype/StillImage" />
        <dc:title />
      </cc:Work>
    </rdf:RDF>
  </metadata>
  <g
     inkscape:label="Layer 1"
     inkscape:groupmode="layer"
     id="layer1"
     transform="translate(98.048812,-95.14345)">
    <rect
       y="95.143448"
       x="-98.048813"
       height="52.916668"
       width="52.916668"
       id="rect5134"
       style="opacity:1;fill:#222222;fill-opacity:1;fill-rule:nonzero;stroke:none;stroke-width:0.5;stroke-linecap:butt;stroke-linejoin:round;stroke-miterlimit:4;stroke-dasharray:none;stroke-dashoffset:0;stroke-opacity:0.90944878;paint-order:normal"
       rx="3.96875"
       ry="3.96875" />
    <rect
       style="opacity:1;fill:#ffeb3b;fill-opacity:1;fill-rule:nonzero;stroke:none;stroke-width:0.5;stroke-linecap:butt;stroke-linejoin:round;stroke-miterlimit:4;stroke-dasharray:none;stroke-dashoffset:0;stroke-opacity:0.90944878;paint-order:normal"
       id="rect5136"
       width="47.625"
       height="47.625"
       x="-95.402977"
       y="97.789284"
       rx="2.6458333"
       ry="2.6458333" />
    <path
       sodipodi:nodetypes="cccccscsccsccccccccsccccccssccsccsccccccccccscccscccccccccccscsscsscccccsscsssccscccccccscccsccssscccccccccscccccccccccccccccsccccccsccccccccccccccccccccc"
       inkscape:connector-curvature="0"
       id="path4587"
       d="m -76.383139,138.11767 c -0.415508,-0.0879 -1.3173,-0.37819 -1.55247,-0.4998 -0.10754,-0.0556 -0.376645,-0.16056 -0.598039,-0.23324 -0.99888,-0.32792 -1.8244,-0.89566 -2.327536,-1.60075 -0.700124,-0.98113 -2.961137,-5.08349 -2.964049,-5.37793 -5.03e-4,-0.0624 0.0827,-0.25674 0.185152,-0.43197 0.454642,-0.77761 0.666324,-1.60827 0.549116,-2.1548 -0.03894,-0.1816 -0.07081,-0.41525 -0.07081,-0.51919 0,-0.22819 -0.0374,-0.24438 -0.77932,-0.33742 -0.32068,-0.0402 -0.665295,-0.10484 -0.765811,-0.14366 -0.164338,-0.0634 -0.182754,-0.10284 -0.182754,-0.39084 0,-0.17617 0.03365,-0.3411 0.07477,-0.36651 0.05295,-0.0327 0.06025,-0.25205 0.025,-0.75157 -0.153306,-2.17308 0.06615,-3.10079 0.959897,-4.05755 l 0.208194,-0.22288 -0.427609,-0.97044 c -0.395947,-0.89859 -1.326194,-3.25792 -1.49626,-3.79489 -0.126115,-0.39816 -0.323381,-1.40059 -0.405429,-2.06017 -0.04319,-0.34724 -0.106141,-0.73949 -0.139895,-0.87166 -0.03375,-0.13216 -0.06135,-0.52403 -0.06135,-0.87081 0,-0.34677 -0.01886,-0.81017 -0.04173,-1.02977 l -0.04173,-0.39927 -0.225657,0.24978 c -0.276835,0.30642 -0.624696,0.48116 -0.846857,0.4254 -0.09033,-0.0227 -0.285864,-0.15351 -0.434528,-0.29075 l -0.270296,-0.24954 v -0.54187 c 0,-0.31694 -0.02758,-0.54186 -0.06646,-0.54186 -0.105322,0 -0.07579,-0.74633 0.03533,-0.89326 0.142828,-0.18883 0.119634,-0.39946 -0.06857,-0.62314 -0.09138,-0.1086 -0.166144,-0.23338 -0.166144,-0.27729 0,-0.0439 -0.05026,-0.16491 -0.111678,-0.2689 -0.104604,-0.17707 -0.104604,-0.21452 0,-0.59075 0.06142,-0.22093 0.111678,-0.51475 0.111678,-0.65292 0,-0.2404 -0.01394,-0.25617 -0.322279,-0.3657 -0.432902,-0.15376 -0.641973,-0.32984 -0.875886,-0.73767 -0.183841,-0.32054 -0.196227,-0.38716 -0.196801,-1.05863 -5.02e-4,-0.64113 0.02079,-0.77213 0.202973,-1.2445 0.240728,-0.62423 0.654605,-1.20766 1.07919,-1.52132 0.275649,-0.20363 0.315473,-0.26795 0.402703,-0.65038 0.118528,-0.51964 0.418219,-0.91173 0.895347,-1.17142 0.27563,-0.150024 0.46627,-0.193744 1.054293,-0.241871 0.394802,-0.03232 0.7813,-0.07862 0.858884,-0.102922 0.108274,-0.03392 0.17371,0.0017 0.281587,0.153162 0.139198,0.195511 0.560412,0.411841 0.801831,0.411841 0.108274,0 0.12029,0.0369 0.08869,0.27255 -0.04245,0.31641 0.02859,0.38927 0.381494,0.39137 0.12792,7.6e-4 0.344283,0.0324 0.480782,0.0703 0.303139,0.0842 0.705691,-0.008 0.881337,-0.2023 0.191326,-0.21142 0.232871,-0.16103 0.232607,0.28217 -2.77e-4,0.49393 -0.17289,0.84718 -0.414135,0.84758 -0.19641,3.2e-4 -0.547475,0.21683 -0.680318,0.41958 -0.151624,0.23141 -0.03988,0.4632 0.326955,0.67818 0.337397,0.19773 0.373952,0.31704 0.15302,0.49938 -0.146232,0.12068 -0.14697,0.128 -0.03322,0.33171 0.15021,0.26903 0.1579,1.12621 0.01374,1.53469 -0.1749,0.49572 -0.726419,0.97068 -1.520517,1.30944 l -0.429756,0.18333 0.30092,0.42922 c 0.556898,0.79434 0.79172,1.3627 0.987325,2.38971 0.187326,0.98359 0.570001,2.0389 1.15671,3.18995 1.008128,1.97782 1.116818,2.21659 1.427284,3.13539 0.168952,0.49999 0.307179,0.95605 0.307179,1.01348 0,0.0574 0.03008,0.1044 0.06687,0.1044 0.100626,0 3.007165,-0.52651 3.029427,-0.54877 0.02614,-0.0261 0.16012,-1.10535 0.16012,-1.28977 0,-0.12506 -0.228758,-0.26504 -1.511902,-0.92516 -2.198731,-1.13115 -3.036666,-1.56736 -3.069218,-1.59779 -0.01578,-0.0148 -3.26e-4,-0.0554 0.03443,-0.0901 0.03999,-0.04 0.258127,-0.0164 0.593687,0.0645 0.291751,0.0702 0.904281,0.21717 1.361175,0.32651 0.456893,0.10934 1.33268,0.32008 1.946192,0.46829 0.613512,0.14822 1.154836,0.26948 1.202936,0.26948 0.11432,0 0.971224,-0.64908 0.971224,-0.73568 0,-0.10264 -1.73946,-3.54782 -1.803968,-3.57297 -0.03126,-0.0121 -0.05684,-0.0645 -0.05684,-0.11629 0,-0.0518 -0.0299,-0.0941 -0.06646,-0.0941 -0.03656,0 -0.06646,-0.0453 -0.06646,-0.10059 0,-0.0987 -0.1275,-0.36557 -0.205936,-0.43107 -0.02188,-0.0183 -0.03934,-0.0833 -0.03876,-0.1444 0.001,-0.11328 0.18422,0.0736 1.639442,1.67291 0.415734,0.4569 1.00939,1.10735 1.319236,1.44545 l 0.563354,0.61473 h 0.575718 0.575718 l 0.17504,-0.84733 c 0.09627,-0.46603 0.31348,-1.52021 0.482704,-2.34262 0.169218,-0.82241 0.316456,-1.50409 0.327186,-1.51484 0.02208,-0.0221 0.07072,0.74457 0.16992,2.67784 0.0375,0.73103 0.08444,1.53981 0.10434,1.79728 l 0.03616,0.46813 0.510656,0.19644 c 0.28086,0.10804 0.530098,0.19643 0.553864,0.19643 0.05094,0 2.978738,-2.707 3.30167,-3.05267 0.248706,-0.26621 0.347804,-0.30101 0.296298,-0.10405 -0.019,0.0731 -0.06116,0.13293 -0.09346,0.13293 -0.0323,0 -0.05872,0.0449 -0.05872,0.0997 0,0.0548 -0.02642,0.0997 -0.0587,0.0997 -0.0323,0 -0.07584,0.0523 -0.09678,0.11629 -0.03706,0.11322 -0.279564,0.54516 -0.494382,0.88056 -0.05852,0.0914 -0.471688,0.80218 -0.91814,1.57955 l -0.811726,1.41341 0.293108,0.20166 0.29311,0.20166 1.112738,-0.30812 c 0.612004,-0.16949 1.678092,-0.47106 2.369082,-0.67017 0.690986,-0.19912 1.277722,-0.3536 1.303856,-0.3433 0.02612,0.0103 -0.845836,0.60189 -1.937706,1.31462 -1.40954,0.92013 -1.976222,1.32483 -1.954196,1.39561 0.017,0.0548 0.11292,0.32398 0.212996,0.59811 0.16334,0.44736 0.18338,0.59717 0.19568,1.46206 0.0134,0.93964 0.019,0.97522 0.233678,1.42883 0.19062,0.40314 0.223446,0.5501 0.245948,1.10157 0.02238,0.54842 0.0066,0.67435 -0.11422,0.91115 -0.18202,0.35676 -0.1773,0.41901 0.04814,0.63498 0.12978,0.12434 0.372488,0.22972 0.780872,0.33906 1.131908,0.30306 2.224948,0.82916 2.576866,1.24029 0.369556,0.43175 0.585252,0.95719 0.678806,1.65362 0.17512,1.30361 0.239524,6.54218 0.275656,7.48507 l 0.03718,0.97009 -0.38345,0.7578 c -0.523674,1.03492 -0.891514,1.58779 -1.260506,1.89454 -0.17124,0.14238 -0.516546,0.52801 -0.767304,0.85697 -0.250764,0.32897 -0.585066,0.72131 -0.742902,0.87188 -0.56591,0.53985 -1.745046,1.43368 -2.3726,1.79851 -0.351516,0.20434 -0.863416,0.51305 -1.137552,0.68599 -0.777406,0.49044 -1.412108,0.78648 -2.423076,1.13015 -0.51316,0.17444 -1.23323,-4.12902 -1.600158,-3.99765 -0.683314,0.24464 -1.610008,0.44232 -2.024378,0.43182 -0.12794,-0.003 -0.367176,-0.0344 -0.531658,-0.0691 z m 0.648562,-16.35408 c 0.17934,-0.19144 0.281842,-0.4638 0.281842,-0.74887 0,-0.20297 -0.02948,-0.23821 -0.29911,-0.35747 -0.1645,-0.0728 -0.460872,-0.2853 -0.658584,-0.47229 l -0.359476,-0.33998 -0.720406,0.22403 c -0.896783,0.27886 -0.928878,0.34813 -0.385654,0.8323 0.26716,0.23812 0.514382,0.38372 0.85963,0.50629 0.266544,0.0946 0.615246,0.24671 0.774896,0.33798 0.353452,0.20205 0.335068,0.20139 0.506862,0.018 z m -1.07452,-3.28039 c 0.0203,-0.0771 -0.0178,-0.25658 -0.0847,-0.39874 l -0.12166,-0.25847 -1.660946,-0.0144 -1.660947,-0.0144 0.346977,0.18058 c 0.221304,0.11518 0.422753,0.2889 0.556197,0.47964 0.115082,0.16448 0.3581,0.45248 0.54006,0.63999 l 0.330835,0.34094 0.8586,-0.40739 c 0.623788,-0.29598 0.868714,-0.44576 0.89558,-0.54767 z"
       style="fill:#222222;fill-opacity:1;stroke-width:0.99999988" />
    <path
       inkscape:connector-curvature="0"
       id="rect5205"
       d="m -96.593606,132.18512 v 8.33437 c 0,3.07817 2.478088,5.55625 5.55625,5.55625 h 38.893751 c 3.078162,0 5.55625,-2.47808 5.55625,-5.55625 v -8.33437 z"
       style="opacity:1;fill:#222222;fill-opacity:1;fill-rule:nonzero;stroke:none;stroke-width:0.5;stroke-linecap:butt;stroke-linejoin:round;stroke-miterlimit:4;stroke-dasharray:none;stroke-dashoffset:0;stroke-opacity:0.90944878;paint-order:normal" />
    <text
       xml:space="preserve"
       style="font-style:normal;font-variant:normal;font-weight:500;font-stretch:normal;font-size:8.46666622px;line-height:4.23333311px;font-family:Montserrat;-inkscape-font-specification:'Montserrat Medium';text-align:center;text-anchor:middle;opacity:1;fill:#eeeeee;fill-opacity:1;fill-rule:nonzero;stroke:none;stroke-width:4.23333311;stroke-linecap:butt;stroke-linejoin:round;stroke-miterlimit:4;stroke-dasharray:none;stroke-dashoffset:0;stroke-opacity:1;paint-order:stroke fill markers"
       x="-355.53735"
       y="24.113144"
       id="text4627-36-3"><tspan
         sodipodi:role="line"
         id="tspan4625-0-6"
         x="-355.53735"
         y="24.113144"
         style="font-style:normal;font-variant:normal;font-weight:500;font-stretch:normal;font-size:8.46666622px;font-family:Montserrat;-inkscape-font-specification:'Montserrat Medium';text-align:center;text-anchor:middle;fill:#eeeeee;fill-opacity:1;stroke-width:4.23333311">ORD</tspan></text>
    <text
       id="text4627-3-2-0"
       y="142.8727"
       x="-71.575401"
       style="font-style:normal;font-variant:normal;font-weight:500;font-stretch:normal;font-size:8.46666622px;line-height:4.23333311px;font-family:Montserrat;-inkscape-font-specification:'Montserrat Medium';text-align:center;letter-spacing:0px;text-anchor:middle;opacity:1;fill:#eeeeee;fill-opacity:1;fill-rule:nonzero;stroke:none;stroke-width:4.23333311;stroke-linecap:butt;stroke-linejoin:round;stroke-miterlimit:4;stroke-dasharray:none;stroke-dashoffset:0;stroke-opacity:1;paint-order:stroke fill markers"
       xml:space="preserve"><tspan
         style="font-style:normal;font-variant:normal;font-weight:600;font-stretch:normal;font-size:8.46666622px;font-family:Montserrat;-inkscape-font-specification:'Montserrat Semi-Bold';text-align:center;letter-spacing:0px;text-anchor:middle;fill:#eeeeee;fill-opacity:1;stroke-width:4.23333311"
         y="142.8727"
         x="-71.575401"
         id="tspan4625-6-9-9"
         sodipodi:role="line">WOLNOŚĆ</tspan></text>
  </g>
</svg>
