<?xml version="1.0" encoding="UTF-8" standalone="no"?>
<!-- Created with Inkscape (http://www.inkscape.org/) -->

<svg
   xmlns:dc="http://purl.org/dc/elements/1.1/"
   xmlns:cc="http://creativecommons.org/ns#"
   xmlns:rdf="http://www.w3.org/1999/02/22-rdf-syntax-ns#"
   xmlns:svg="http://www.w3.org/2000/svg"
   xmlns="http://www.w3.org/2000/svg"
   xmlns:sodipodi="http://sodipodi.sourceforge.net/DTD/sodipodi-0.dtd"
   xmlns:inkscape="http://www.inkscape.org/namespaces/inkscape"
   width="200"
   height="200"
   viewBox="0 0 52.916668 52.916666"
   version="1.1"
   id="svg8"
   inkscape:version="0.92.4 (5da689c313, 2019-01-14)"
   sodipodi:docname="progress.svg">
  <defs
     id="defs2">
    <inkscape:path-effect
       effect="envelope"
       id="path-effect4658"
       is_visible="true"
       yy="true"
       xx="true"
       bendpath1="m -199.08406,108.42369 h 7.0057"
       bendpath2="m -192.07836,108.42369 v 6.75242"
       bendpath3="m -199.08406,115.17611 h 7.0057"
       bendpath4="m -199.08406,108.42369 v 6.75242" />
    <inkscape:path-effect
       effect="bend_path"
       id="path-effect4656"
       is_visible="true"
       bendpath="m -192.00142,114.60623 c 2.12577,-0.53066 4.48261,0.85111 7.0057,0"
       prop_scale="1"
       scale_y_rel="false"
       vertical="false"
       bendpath-nodetypes="cc" />
    <inkscape:path-effect
       effect="bounding_box"
       id="path-effect4654"
       is_visible="true"
       linkedpath=""
       visualbounds="false" />
  </defs>
  <sodipodi:namedview
     id="base"
     pagecolor="#ffffff"
     bordercolor="#666666"
     borderopacity="1.0"
     inkscape:pageopacity="0.0"
     inkscape:pageshadow="2"
     inkscape:zoom="1.4142136"
     inkscape:cx="-64.762305"
     inkscape:cy="40.910796"
     inkscape:document-units="px"
     inkscape:current-layer="text5373"
     showgrid="false"
     fit-margin-top="0"
     fit-margin-left="0"
     fit-margin-right="0"
     fit-margin-bottom="0"
     inkscape:window-width="1366"
     inkscape:window-height="707"
     inkscape:window-x="0"
     inkscape:window-y="0"
     inkscape:window-maximized="1"
     showguides="false"
     inkscape:object-nodes="true"
     units="px"
     inkscape:snap-page="true"
     inkscape:snap-bbox="true"
     inkscape:bbox-paths="true"
     inkscape:snap-bbox-edge-midpoints="true"
     inkscape:bbox-nodes="true"
     inkscape:snap-bbox-midpoints="true" />
  <metadata
     id="metadata5">
    <rdf:RDF>
      <cc:Work
         rdf:about="">
        <dc:format>image/svg+xml</dc:format>
        <dc:type
           rdf:resource="http://purl.org/dc/dcmitype/StillImage" />
        <dc:title />
      </cc:Work>
    </rdf:RDF>
  </metadata>
  <g
     inkscape:label="Layer 1"
     inkscape:groupmode="layer"
     id="layer1"
     transform="translate(98.048812,-95.14345)">
    <rect
       y="95.143448"
       x="-98.048813"
       height="52.916668"
       width="52.916668"
       id="rect5363"
       style="opacity:1;fill:#222222;fill-opacity:1;fill-rule:nonzero;stroke:none;stroke-width:0.5;stroke-linecap:butt;stroke-linejoin:round;stroke-miterlimit:4;stroke-dasharray:none;stroke-dashoffset:0;stroke-opacity:0.90944878;paint-order:normal"
       rx="3.96875"
       ry="3.96875" />
    <rect
       style="opacity:1;fill:#9c27b0;fill-opacity:1;fill-rule:nonzero;stroke:none;stroke-width:0.5;stroke-linecap:butt;stroke-linejoin:round;stroke-miterlimit:4;stroke-dasharray:none;stroke-dashoffset:0;stroke-opacity:0.90944878;paint-order:normal"
       id="rect5365"
       width="47.625"
       height="47.625"
       x="-95.402977"
       y="97.789284"
       rx="2.6458333"
       ry="2.6458333" />
    <path
       id="text5407"
       d="m -76.439054,102.03691 a 0.31743062,0.31743062 0 0 0 -0.272764,0.22937 0.31743062,0.31743062 0 0 0 0,0.005 c -1.055944,0.14902 -2.053636,0.8027 -2.960738,2.25403 -0.95315,1.55087 -1.671391,3.77805 -2.22179,6.55131 -2.59259,-0.89656 -4.847694,-1.4008 -6.672817,-1.36878 -1.918301,0.0339 -3.252077,0.52442 -3.852181,1.57459 a 0.31743062,0.31743062 0 0 0 0,0.005 c -0.206647,0.37568 -0.30872,0.80274 -0.30872,1.2696 0,0.84204 0.310572,1.78322 0.895165,2.83552 0.865104,1.60014 2.415469,3.31342 4.4845,5.13045 -2.101071,1.84783 -3.67103,3.57339 -4.536573,5.16021 a 0.31743062,0.31743062 0 0 0 0,0.004 c -0.550207,1.05044 -0.843092,1.97128 -0.843092,2.7796 0,0.4671 0.10247,0.89414 0.30872,1.26959 a 0.31743062,0.31743062 0 0 0 0,0.005 c 0.582784,1.03392 1.887522,1.53142 3.772831,1.59815 a 0.31743062,0.31743062 0 0 0 0.005,0 c 1.827592,0.0477 4.107056,-0.46711 6.743486,-1.39234 0.548266,2.69698 1.246693,4.90607 2.173439,6.47196 a 0.31743062,0.31743062 0 0 0 0,0.004 c 1.000634,1.65105 2.10118,2.56399 3.317814,2.56399 1.202912,0 2.286788,-0.91301 3.270694,-2.56399 a 0.31743062,0.31743062 0 0 0 0,-0.004 c 0.92755,-1.56725 1.631204,-3.7766 2.179636,-6.47692 2.659668,0.91523 4.945196,1.42198 6.762084,1.37374 1.882868,-0.0496 3.187146,-0.53821 3.771594,-1.56964 v -0.005 c 0.225736,-0.37797 0.337234,-0.81931 0.337234,-1.30307 0,-0.8083 -0.292262,-1.72002 -0.84309,-2.75492 a 0.31743062,0.31743062 0 0 0 0,-0.005 c -0.885646,-1.59418 -2.46796,-3.31491 -4.587406,-5.15899 2.071502,-1.81888 3.645314,-3.53613 4.540292,-5.15029 h -0.005 c 0.584854,-1.03607 0.895162,-1.96094 0.895162,-2.7884 0,-0.48387 -0.11154,-0.92514 -0.337238,-1.30307 -0.601736,-1.04921 -1.938622,-1.53642 -3.870818,-1.56973 -1.820372,-0.0324 -4.079702,0.4722 -6.677774,1.36383 -0.550248,-2.76982 -1.263262,-4.99681 -2.215594,-6.54636 -0.984034,-1.60114 -2.049262,-2.48836 -3.219862,-2.48836 a 0.31743062,0.31743062 0 0 0 -0.03224,0 z m 0.03224,1.87464 c 0.300682,0 0.61543,0.1352 0.965836,0.4637 0.350404,0.3285 0.719932,0.84904 1.091056,1.55972 0.692564,1.30984 1.247834,3.27512 1.677502,5.73673 -1.249954,0.48058 -2.49349,1.02277 -3.729428,1.63535 -1.267764,-0.61459 -2.53086,-1.15344 -3.78647,-1.63535 0.429668,-2.46161 0.98494,-4.42689 1.677502,-5.73673 0.370702,-0.70985 0.743542,-1.23146 1.100978,-1.55972 0.357434,-0.32826 0.682306,-0.4637 1.003032,-0.4637 z m -12.114463,7.49111 c 0.1822,-0.002 0.374482,0.001 0.577765,0.0113 1.494817,0.0756 3.436838,0.57443 5.711939,1.4097 -0.198874,1.33126 -0.347755,2.68919 -0.440143,4.07288 -1.159562,0.78294 -2.258299,1.5907 -3.299212,2.42757 -1.87566,-1.55234 -3.285113,-2.98728 -4.10015,-4.25513 a 0.31743062,0.31743062 0 0 0 0,-0.005 c -0.441399,-0.67784 -0.710392,-1.262 -0.815812,-1.73823 -0.105422,-0.47624 -0.05859,-0.83024 0.112835,-1.11586 a 0.31743062,0.31743062 0 0 0 0.005,-0.005 c 0.155446,-0.27359 0.433144,-0.48508 0.900122,-0.62737 0.350236,-0.10671 0.801136,-0.16757 1.347706,-0.1748 z m 24.206623,0 c 0.54678,0.007 0.998894,0.0678 1.352664,0.1748 0.46895,0.14177 0.753938,0.35375 0.917482,0.62736 0.16448,0.28469 0.213482,0.63836 0.10416,1.11585 -0.10934,0.4775 -0.384088,1.06499 -0.825732,1.74322 a 0.31743062,0.31743062 0 0 0 0,0.005 c -0.814776,1.28252 -2.23297,2.7257 -4.12371,4.27869 -1.041612,-0.83746 -2.13754,-1.64913 -3.297972,-2.43256 -0.0929,-1.39663 -0.252474,-2.76011 -0.46494,-4.09147 2.275056,-0.83498 4.228656,-1.33358 5.755334,-1.4097 h 0.004 c 0.20328,-0.01 0.396748,-0.0134 0.579004,-0.0113 z m -8.071356,2.08665 c 0.09168,0.7079 0.16176,1.42974 0.224396,2.1598 -0.351146,-0.21646 -0.702682,-0.43239 -1.053862,-0.65587 a 0.31743062,0.31743062 0 0 0 -0.0138,-0.009 c -0.390286,-0.21692 -0.76305,-0.41611 -1.139226,-0.61868 0.667918,-0.30583 1.329414,-0.59992 1.982504,-0.87657 z m -8.083752,0.0187 c 0.653148,0.26724 1.314358,0.55908 1.982506,0.86293 -0.372096,0.20235 -0.740454,0.40204 -1.119578,0.61867 a 0.31743062,0.31743062 0 0 0 -0.0098,0.004 c -0.36571,0.2259 -0.723814,0.44211 -1.08237,0.66084 0.06276,-0.72847 0.13754,-1.4473 0.229368,-2.14616 z m 4.012122,1.87464 c 0.760362,0.39723 1.520802,0.8016 2.281304,1.22744 0.743462,0.42478 1.468514,0.8684 2.183356,1.32167 0.04262,0.85018 0.0657,1.71214 0.0657,2.59126 0,0.86489 -0.02308,1.72228 -0.0657,2.57267 -0.699688,0.45209 -1.426066,0.89257 -2.183356,1.31671 a 0.31743062,0.31743062 0 0 0 -0.005,0.005 c -0.742708,0.43953 -1.488004,0.84927 -2.230432,1.24602 -0.766982,-0.39532 -1.514984,-0.80847 -2.23915,-1.24604 a 0.31743062,0.31743062 0 0 0 -0.0148,-0.005 c -0.772372,-0.42402 -1.502088,-0.86496 -2.202117,-1.31672 -0.0285,-0.85069 -0.04215,-1.7075 -0.04215,-2.57267 0,-0.87936 0.0139,-1.74064 0.04215,-2.59126 0.715265,-0.45298 1.448485,-0.89691 2.206911,-1.32167 a 0.31743062,0.31743062 0 0 0 0.005,0 c 0.72618,-0.4235 1.457968,-0.83212 2.19825,-1.2274 z m 0.05084,2.97065 c -0.377748,0 -0.7416,0.1 -1.077422,0.28641 -0.342794,0.17362 -0.616842,0.44212 -0.805894,0.78233 -0.18786,0.33809 -0.286404,0.70968 -0.286404,1.10098 0,0.37766 0.09978,0.74643 0.286404,1.08238 a 0.31743062,0.31743062 0 0 0 0.005,0.005 c 0.19078,0.32441 0.463728,0.58633 0.800936,0.77366 0.335922,0.18662 0.699762,0.28516 1.077424,0.28516 0.364294,0 0.721466,-0.0999 1.0551,-0.28516 0.337214,-0.18732 0.610134,-0.44926 0.800936,-0.77366 a 0.31743062,0.31743062 0 0 0 0.005,-0.005 c 0.1866,-0.33594 0.285164,-0.70471 0.285164,-1.08238 0,-0.3914 -0.09732,-0.76292 -0.285164,-1.10098 -0.18906,-0.34039 -0.463162,-0.60872 -0.805894,-0.78233 -0.333732,-0.18542 -0.690886,-0.28641 -1.055102,-0.28641 z m -6.367824,0.88153 c -0.0074,0.42817 -0.01488,0.85286 -0.01488,1.28819 0,0.42346 0.0074,0.84606 0.01488,1.2696 -0.606687,-0.41707 -1.199534,-0.83822 -1.76181,-1.2696 0.562648,-0.44121 1.154641,-0.86865 1.76181,-1.28819 z m 12.693474,0 c 0.610456,0.42037 1.208336,0.84599 1.78165,1.28819 -0.572924,0.43233 -1.171672,0.8517 -1.78165,1.2696 0.0142,-0.42321 0.03346,-0.84642 0.03346,-1.2696 0,-0.43495 -0.019,-0.8603 -0.03346,-1.28819 z m -15.908377,2.46482 c 1.055126,0.83725 2.156928,1.64793 3.317808,2.43133 0.09266,1.38196 0.241536,2.73814 0.440145,4.06791 -2.321308,0.85034 -4.289672,1.35061 -5.782611,1.41093 -0.797067,0.0315 -1.428378,-0.0313 -1.888275,-0.17358 -0.4599,-0.14234 -0.734985,-0.35172 -0.890206,-0.61867 -0.154918,-0.2665 -0.200097,-0.61152 -0.09422,-1.08238 0.105854,-0.47088 0.365985,-1.05572 0.792259,-1.73454 a 0.31743062,0.31743062 0 0 0 0.005,-0.004 c 0.766564,-1.26252 2.179923,-2.71407 4.100149,-4.29722 z m 19.118323,0 c 1.92162,1.58369 3.34591,3.03656 4.128664,4.301 a 0.31743062,0.31743062 0 0 0 0,0.005 c 0.43397,0.67857 0.700378,1.26022 0.805896,1.72958 0.1055,0.46935 0.05832,0.81078 -0.10292,1.07742 a 0.31743062,0.31743062 0 0 0 0,0.005 c -0.15524,0.26702 -0.435288,0.47634 -0.895164,0.61868 -0.459882,0.14232 -1.091224,0.20517 -1.888276,0.17358 -1.49317,-0.0602 -3.469166,-0.56021 -5.806168,-1.41094 0.19868,-1.32973 0.349,-2.68586 0.441382,-4.06791 1.160876,-0.78343 2.26144,-1.5941 3.31657,-2.43133 z m -13.82792,3.66868 c 0.358594,0.22442 0.712512,0.45374 1.092298,0.67075 0.367926,0.21634 0.7445,0.41662 1.119574,0.61868 -0.669266,0.3065 -1.33308,0.59814 -1.987462,0.87533 -0.09186,-0.70942 -0.16166,-1.43309 -0.224402,-2.16476 z m 8.537534,0.005 c -0.06266,0.73006 -0.13272,1.4519 -0.22442,2.1598 -0.653088,-0.27664 -1.314586,-0.56949 -1.982502,-0.87533 0.376196,-0.20258 0.748956,-0.40176 1.139412,-0.61868 a 0.31743062,0.31743062 0 0 0 0.004,-0.005 c 0.365026,-0.2147 0.712674,-0.43895 1.063784,-0.66083 z m -4.296046,2.34329 c 1.256832,0.61648 2.519356,1.16255 3.79019,1.65891 -0.41467,2.40459 -0.963918,4.34375 -1.658906,5.68838 a 0.31743062,0.31743062 0 0 0 0,0.005 c -0.362832,0.71778 -0.734044,1.24316 -1.087338,1.5746 -0.353294,0.33144 -0.673424,0.46866 -0.99311,0.46866 -0.329628,0 -0.660498,-0.14168 -1.021628,-0.47362 -0.361134,-0.33189 -0.735288,-0.85689 -1.105938,-1.57454 -0.694984,-1.34463 -1.244234,-3.28379 -1.658906,-5.68838 1.251778,-0.4948 2.497768,-1.04488 3.735636,-1.65891 z"
       style="font-style:normal;font-variant:normal;font-weight:bold;font-stretch:normal;font-size:4.23333311px;line-height:4.23333311px;font-family:Montserrat;-inkscape-font-specification:'Montserrat Bold';text-align:center;text-anchor:middle;opacity:1;fill:#222222;fill-opacity:1;fill-rule:nonzero;stroke:none;stroke-width:0.49999997;stroke-linecap:butt;stroke-linejoin:round;stroke-miterlimit:4;stroke-dasharray:none;stroke-dashoffset:0;stroke-opacity:0.90944878;paint-order:normal"
       inkscape:connector-curvature="0" />
    <path
       style="opacity:1;fill:#222222;fill-opacity:1;fill-rule:nonzero;stroke:none;stroke-width:0.49999994;stroke-linecap:butt;stroke-linejoin:round;stroke-miterlimit:4;stroke-dasharray:none;stroke-dashoffset:0;stroke-opacity:0.90944878;paint-order:normal"
       d="m -96.593602,132.18512 v 8.33438 c 0,3.07816 2.478088,5.55624 5.55625,5.55624 h 38.893748 c 3.078162,0 5.55625,-2.47808 5.55625,-5.55624 v -8.33438 z"
       id="path5369"
       inkscape:connector-curvature="0" />
    <g
       aria-label="PROGRESS"
       style="font-style:normal;font-variant:normal;font-weight:500;font-stretch:normal;font-size:4.23333311px;line-height:4.23333311px;font-family:Montserrat;-inkscape-font-specification:'Montserrat Medium';text-align:center;letter-spacing:-0.26458332px;text-anchor:middle;opacity:1;fill:#eeeeee;fill-opacity:1;fill-rule:nonzero;stroke:none;stroke-width:0.25;stroke-linecap:butt;stroke-linejoin:round;stroke-miterlimit:4;stroke-dasharray:none;stroke-dashoffset:0;stroke-opacity:0.90944878;paint-order:normal"
       id="text5373"
       transform="matrix(2,0,0,2,-98.048812,95.143449)">
      <text
         id="text4627-3-2-18"
         y="23.278311"
         x="13.128757"
         style="font-style:normal;font-variant:normal;font-weight:500;font-stretch:normal;font-size:4.23333311px;line-height:2.11666656px;font-family:Montserrat;-inkscape-font-specification:'Montserrat Medium';text-align:center;letter-spacing:0px;text-anchor:middle;opacity:1;fill:#eeeeee;fill-opacity:1;fill-rule:nonzero;stroke:none;stroke-width:2.11666656;stroke-linecap:butt;stroke-linejoin:round;stroke-miterlimit:4;stroke-dasharray:none;stroke-dashoffset:0;stroke-opacity:1;paint-order:stroke fill markers"
         xml:space="preserve"><tspan
           style="font-style:normal;font-variant:normal;font-weight:600;font-stretch:normal;font-size:4.23333311px;font-family:Montserrat;-inkscape-font-specification:'Montserrat Semi-Bold';text-align:center;letter-spacing:0px;text-anchor:middle;fill:#eeeeee;fill-opacity:1;stroke-width:2.11666656"
           y="23.278311"
           x="13.128757"
           id="tspan4625-6-9-7"
           sodipodi:role="line">POSTĘP</tspan></text>
    </g>
    <text
       xml:space="preserve"
       style="font-style:normal;font-variant:normal;font-weight:500;font-stretch:normal;font-size:8.46666622px;line-height:4.23333311px;font-family:Montserrat;-inkscape-font-specification:'Montserrat Medium';text-align:center;text-anchor:middle;opacity:1;fill:#eeeeee;fill-opacity:1;fill-rule:nonzero;stroke:none;stroke-width:4.23333311;stroke-linecap:butt;stroke-linejoin:round;stroke-miterlimit:4;stroke-dasharray:none;stroke-dashoffset:0;stroke-opacity:1;paint-order:stroke fill markers"
       x="-355.53735"
       y="24.113144"
       id="text4627-36-3"><tspan
         sodipodi:role="line"
         id="tspan4625-0-6"
         x="-355.53735"
         y="24.113144"
         style="font-style:normal;font-variant:normal;font-weight:500;font-stretch:normal;font-size:8.46666622px;font-family:Montserrat;-inkscape-font-specification:'Montserrat Medium';text-align:center;text-anchor:middle;fill:#eeeeee;fill-opacity:1;stroke-width:4.23333311">ORD</tspan></text>
  </g>
</svg>
