<?xml version="1.0" encoding="UTF-8" standalone="no"?>
<!-- Created with Inkscape (http://www.inkscape.org/) -->

<svg
   xmlns:dc="http://purl.org/dc/elements/1.1/"
   xmlns:cc="http://creativecommons.org/ns#"
   xmlns:rdf="http://www.w3.org/1999/02/22-rdf-syntax-ns#"
   xmlns:svg="http://www.w3.org/2000/svg"
   xmlns="http://www.w3.org/2000/svg"
   xmlns:sodipodi="http://sodipodi.sourceforge.net/DTD/sodipodi-0.dtd"
   xmlns:inkscape="http://www.inkscape.org/namespaces/inkscape"
   width="200"
   height="200"
   viewBox="0 0 52.916668 52.916666"
   version="1.1"
   id="svg8"
   inkscape:version="0.92.4 (5da689c313, 2019-01-14)"
   sodipodi:docname="unitary.svg"
   inkscape:export-filename="/home/debian/Pulpit/9axes.github.io-master/value_images/unitary.png"
   inkscape:export-xdpi="96"
   inkscape:export-ydpi="96">
  <defs
     id="defs2">
    <inkscape:path-effect
       effect="envelope"
       id="path-effect4658"
       is_visible="true"
       yy="true"
       xx="true"
       bendpath1="m -199.08406,108.42369 h 7.0057"
       bendpath2="m -192.07836,108.42369 v 6.75242"
       bendpath3="m -199.08406,115.17611 h 7.0057"
       bendpath4="m -199.08406,108.42369 v 6.75242" />
    <inkscape:path-effect
       effect="bend_path"
       id="path-effect4656"
       is_visible="true"
       bendpath="m -192.00142,114.60623 c 2.12577,-0.53066 4.48261,0.85111 7.0057,0"
       prop_scale="1"
       scale_y_rel="false"
       vertical="false"
       bendpath-nodetypes="cc" />
    <inkscape:path-effect
       effect="bounding_box"
       id="path-effect4654"
       is_visible="true"
       linkedpath=""
       visualbounds="false" />
  </defs>
  <sodipodi:namedview
     id="base"
     pagecolor="#ffffff"
     bordercolor="#666666"
     borderopacity="1.0"
     inkscape:pageopacity="0.0"
     inkscape:pageshadow="2"
     inkscape:zoom="1"
     inkscape:cx="-342.55071"
     inkscape:cy="117.26853"
     inkscape:document-units="px"
     inkscape:current-layer="layer1"
     showgrid="false"
     fit-margin-top="0"
     fit-margin-left="0"
     fit-margin-right="0"
     fit-margin-bottom="0"
     inkscape:window-width="1366"
     inkscape:window-height="707"
     inkscape:window-x="0"
     inkscape:window-y="0"
     inkscape:window-maximized="1"
     showguides="false"
     inkscape:object-nodes="true"
     units="px"
     inkscape:snap-bbox="true"
     inkscape:bbox-paths="true"
     inkscape:bbox-nodes="true"
     inkscape:snap-bbox-edge-midpoints="true"
     inkscape:snap-bbox-midpoints="true"
     inkscape:object-paths="true"
     inkscape:snap-intersection-paths="true"
     inkscape:snap-smooth-nodes="true"
     inkscape:snap-midpoints="true"
     inkscape:snap-object-midpoints="true"
     inkscape:snap-global="false" />
  <metadata
     id="metadata5">
    <rdf:RDF>
      <cc:Work
         rdf:about="">
        <dc:format>image/svg+xml</dc:format>
        <dc:type
           rdf:resource="http://purl.org/dc/dcmitype/StillImage" />
        <dc:title />
      </cc:Work>
    </rdf:RDF>
  </metadata>
  <g
     inkscape:label="Layer 1"
     inkscape:groupmode="layer"
     id="layer1"
     transform="translate(39.608708,-92.411388)">
    <text
       xml:space="preserve"
       style="font-style:normal;font-variant:normal;font-weight:500;font-stretch:normal;font-size:8.46666622px;line-height:4.23333311px;font-family:Montserrat;-inkscape-font-specification:'Montserrat Medium';text-align:center;text-anchor:middle;opacity:1;fill:#eeeeee;fill-opacity:1;fill-rule:nonzero;stroke:none;stroke-width:4.23333311;stroke-linecap:butt;stroke-linejoin:round;stroke-miterlimit:4;stroke-dasharray:none;stroke-dashoffset:0;stroke-opacity:1;paint-order:stroke fill markers"
       x="-355.53735"
       y="24.113144"
       id="text4627-36-3"><tspan
         sodipodi:role="line"
         id="tspan4625-0-6"
         x="-355.53735"
         y="24.113144"
         style="font-style:normal;font-variant:normal;font-weight:500;font-stretch:normal;font-size:8.46666622px;font-family:Montserrat;-inkscape-font-specification:'Montserrat Medium';text-align:center;text-anchor:middle;fill:#eeeeee;fill-opacity:1;stroke-width:4.23333311">ORD</tspan></text>
    <rect
       ry="3.96875"
       rx="3.96875"
       style="opacity:1;fill:#222222;fill-opacity:1;fill-rule:nonzero;stroke:none;stroke-width:0.5;stroke-linecap:butt;stroke-linejoin:round;stroke-miterlimit:4;stroke-dasharray:none;stroke-dashoffset:0;stroke-opacity:0.90944878;paint-order:normal"
       id="rect4485-5"
       width="52.916668"
       height="52.916668"
       x="-39.500446"
       y="92.490219" />
    <rect
       ry="2.6458333"
       rx="2.6458333"
       y="95.136055"
       x="-36.854618"
       height="47.625"
       width="47.625"
       id="rect4487-6"
       style="opacity:1;fill:#f44336;fill-opacity:1;fill-rule:nonzero;stroke:none;stroke-width:0.5;stroke-linecap:butt;stroke-linejoin:round;stroke-miterlimit:4;stroke-dasharray:none;stroke-dashoffset:0;stroke-opacity:0.90944878;paint-order:normal" />
    <path
       inkscape:connector-curvature="0"
       id="rect5205-3-9"
       d="m -38.04524,129.5319 v 8.33438 c 0,3.07816 2.47809,5.55625 5.55625,5.55625 H 6.4047601 c 3.078162,0 5.5562489,-2.47809 5.5562489,-5.55625 v -8.33438 z"
       style="opacity:1;fill:#222222;fill-opacity:1;fill-rule:nonzero;stroke:none;stroke-width:0.5;stroke-linecap:butt;stroke-linejoin:round;stroke-miterlimit:4;stroke-dasharray:none;stroke-dashoffset:0;stroke-opacity:0.90944878;paint-order:normal" />
    <path
       style="display:block;fill:#222222;fill-rule:evenodd;stroke:none;stroke-width:0.1388133"
       inkscape:connector-curvature="0"
       d="m 1.8836353,129.58151 v -7.17999 -7.17996 h -4.3080707 -4.3079324 v 5.89359 5.89359 h 0.1617174 c 0.1307626,0 0.4086673,0.24626 1.4508771,1.28596 l 1.289298,1.28611 -0.625632,2.8e-4 -0.6257701,4.2e-4 -0.8448178,-0.8376 -0.8449561,-0.83774 h -7.7091357 -7.709275 l -0.844817,0.83774 -0.844958,0.8376 -0.62563,-4.2e-4 -0.625633,-2.8e-4 1.28916,-1.28611 c 1.04221,-1.0397 1.320254,-1.28596 1.451016,-1.28596 h 0.161717 v -5.89359 -5.89359 h -4.308072 -4.307931 v 7.17996 7.17999 m 16.045708,-32.410822 c -0.128958,0.137286 -0.130068,0.158108 -0.130068,2.48309 v 2.344562 h -0.14034 c -0.274296,0 -0.338288,0.16102 -0.338288,0.85065 v 0.63187 l -0.224461,0.0406 c -2.561385,0.46476 -4.461461,3.0496 -4.312098,5.86626 l 0.01916,0.35896 h 5.444815 5.4448126 l 0.019014,-0.35896 c 0.1493633,-2.81666 -1.7505736,-5.4015 -4.3120946,-5.86626 l -0.224323,-0.0406 v -0.64214 c 0,-0.69365 -0.06094,-0.84038 -0.348838,-0.84038 -0.123682,0 -0.12979,-0.0257 -0.12979,-0.53846 0,-0.29623 0.01208,-0.53845 0.02693,-0.53845 0.01485,0 0.182123,0.0404 0.371603,0.0897 0.469467,0.12229 0.992376,0.11272 1.941165,-0.0354 0.897706,-0.14021 1.8453828,-0.13063 2.3390036,0.0237 0.3722972,0.11632 0.3471717,0.22599 0.3471717,-1.521676 v -1.54319 l -0.4038139,-0.125655 c -0.5540045,-0.172268 -1.4294994,-0.171574 -2.3787044,0.0018 -1.259176,0.229875 -2.243362,0.0869 -2.243362,-0.325934 0,-0.399088 -0.496674,-0.602449 -0.767499,-0.314134 m -9.224699,15.328489 v 1.82485 h 0.897428 0.897567 v -0.32552 c 0,-0.36286 0.02374,-0.39075 0.4188,-0.49015 0.148114,-0.0372 1.144377,-0.30219 2.213794,-0.58871 2.493365,-0.66797 2.745312,-0.73515 4.040439,-1.07621 l 1.078719,-0.28416 1.075387,0.28429 c 1.467673,0.38812 1.802769,0.47752 4.0369676,1.07608 1.0695566,0.28652 2.0658199,0.55152 2.2139338,0.58871 0.3949231,0.0994 0.4187992,0.12729 0.4187992,0.49015 v 0.32552 h 0.8974282 0.8975674 v -1.82483 -1.82497 h -9.5434112 -9.543415 v 1.82497 m 8.316861,0.30553 c -0.641735,0.17657 -1.382166,0.37577 -1.645494,0.4424 -0.263189,0.0668 -1.259452,0.32968 -2.213794,0.58426 l -1.735166,0.4628 -0.01527,6.35723 -0.01528,6.35738 h 1.376473 1.376473 v -5.2055 -5.2055 h 1.376195 1.376195 v 5.2055 5.2055 h 1.346212 1.346212 v -5.2055 -5.2055 h 1.376194 1.376195 v 5.2055 5.2055 h 1.3763351 1.3764718 l -0.015266,-6.35738 -0.015133,-6.35723 -1.7351665,-0.46293 c -0.9543414,-0.25459 -1.9371384,-0.51388 -2.1839494,-0.57636 -0.24681,-0.0624 -1.010561,-0.26471 -1.697131,-0.44947 -0.686571,-0.1849 -1.251957,-0.33302 -1.256538,-0.32913 -0.0044,0.005 -0.533182,0.15172 -1.174777,0.32843 m -11.488051,6.03838 v 1.34773 l -0.900065,-0.0165 -0.900066,-0.0166 0.0013,-1.30138 c 6.82e-4,-0.71571 0.0018,-1.31483 0.0024,-1.33121 6.82e-4,-0.0166 0.405058,-0.03 0.898678,-0.03 h 0.897567 v 1.34787 m 3.171189,-0.002 v 1.34634 h -0.897489 -0.897428 v -1.34634 -1.34621 h 0.897428 0.897566 v 1.34621 m 20.8818251,0 v 1.34634 h -0.897562 -0.8974283 v -1.34634 -1.34621 h 0.8974283 0.8975664 v 1.34621 m 3.17618741,0 v 1.31636 l -0.8999268,0.0166 -0.90006511,0.0165 v -1.34941 -1.34926 l 0.90006511,0.0165 0.8999268,0.0166 v 1.31623 M -27.195506,123.39 v 1.34788 l -0.897705,-0.0165 c -0.493621,-0.009 -0.897567,-0.0368 -0.897429,-0.0614 0,-0.0247 1.4e-4,-0.62382 1.4e-4,-1.33135 v -1.28639 h 0.897427 0.897567 v 1.34773 m 3.17119,-0.002 v 1.34621 h -0.897566 -0.897429 v -1.34621 -1.34621 h 0.897429 0.897566 v 1.34621 m 20.8818245,0 v 1.34621 h -0.897503 -0.8974282 v -1.34621 -1.34621 h 0.8974282 0.8975665 v 1.34621 m 3.17119011,-0.0598 c 0,0.70753 0,1.30665 1.382e-4,1.33136 0,0.0246 -0.4038073,0.0522 -0.89756638,0.0613 l -0.89756643,0.0166 v -1.34788 -1.34773 h 0.89747949 0.89756732 v 1.28637"
       id="path0"
       sodipodi:nodetypes="cccccccscccccccccccccsccccccccscsscccccccccsssscccscccscccccscccccccscccccccccccccccccccccccccccccccccccccccccccccscccccccccccccccccccccccccccccccccsccccccccccccccccccccccccccccccc" />
    <text
       id="text4627-3-2-1-1"
       y="140.21948"
       x="-13.027966"
       style="font-style:normal;font-variant:normal;font-weight:500;font-stretch:normal;font-size:8.46666622px;line-height:4.23333311px;font-family:Montserrat;-inkscape-font-specification:'Montserrat Medium';text-align:center;letter-spacing:0px;text-anchor:middle;opacity:1;fill:#eeeeee;fill-opacity:1;fill-rule:nonzero;stroke:none;stroke-width:4.23333311;stroke-linecap:butt;stroke-linejoin:round;stroke-miterlimit:4;stroke-dasharray:none;stroke-dashoffset:0;stroke-opacity:1;paint-order:stroke fill markers"
       xml:space="preserve"><tspan
         style="font-style:normal;font-variant:normal;font-weight:600;font-stretch:normal;font-size:8.46666622px;font-family:Montserrat;-inkscape-font-specification:'Montserrat Semi-Bold';text-align:center;letter-spacing:0px;text-anchor:middle;fill:#eeeeee;fill-opacity:1;stroke-width:4.23333311"
         y="140.21948"
         x="-13.027965"
         id="tspan4625-6-9-27-2"
         sodipodi:role="line">UNITARYZM</tspan></text>
  </g>
</svg>
